<svg width="218" height="62" viewBox="0 0 218 62" fill="none" xmlns="http://www.w3.org/2000/svg">
<path d="M129.786 32.95C130.916 32.95 131.832 32.0402 131.832 30.9179C131.832 29.7956 130.916 28.8857 129.786 28.8857C128.656 28.8857 127.74 29.7956 127.74 30.9179C127.74 32.0402 128.656 32.95 129.786 32.95Z" fill="#2980B9"/>
<path d="M125.285 15.4736C125.285 14.3512 124.368 13.4414 123.238 13.4414C122.108 13.4414 121.192 14.3512 121.192 15.4736V46.7686C121.192 47.891 122.108 48.8008 123.238 48.8008C124.368 48.8008 125.285 47.891 125.285 46.7686V15.4736Z" fill="#2980B9"/>
<path d="M123.238 44.7365C122.108 44.7365 121.192 45.6463 121.192 46.7686C121.192 47.891 122.108 48.8008 123.238 48.8008H135.515C136.645 48.8008 137.561 47.891 137.561 46.7686C137.561 45.6463 136.645 44.7365 135.515 44.7365H123.238Z" fill="#2980B9"/>
<path d="M123.238 13.4413C122.108 13.4413 121.192 14.3511 121.192 15.4735C121.192 16.5958 122.108 17.5056 123.238 17.5056H135.515C136.645 17.5056 137.561 16.5958 137.561 15.4735C137.561 14.3511 136.645 13.4413 135.515 13.4413H123.238Z" fill="#2980B9"/>
<path d="M176.98 15.4736C176.98 14.3512 176.064 13.4414 174.934 13.4414C173.804 13.4414 172.888 14.3512 172.888 15.4736V46.7686C172.888 47.891 173.804 48.8008 174.934 48.8008C176.064 48.8008 176.98 47.891 176.98 46.7686V15.4736Z" fill="#2980B9"/>
<path d="M174.934 44.7365C173.804 44.7365 172.888 45.6463 172.888 46.7686C172.888 47.891 173.804 48.8008 174.934 48.8008H187.211C188.341 48.8008 189.257 47.891 189.257 46.7686C189.257 45.6463 188.341 44.7365 187.211 44.7365H174.934Z" fill="#2980B9"/>
<path d="M76.0499 15.3147C76.0499 14.1861 75.1288 13.2712 73.9925 13.2712C72.8562 13.2712 71.9351 14.1861 71.9351 15.3147V46.7834C71.9351 47.9119 72.8562 48.8268 73.9925 48.8268C75.1288 48.8268 76.0499 47.9119 76.0499 46.7834V15.3147Z" fill="#2980B9"/>
<path d="M73.6306 31.4161C72.8563 32.2421 72.9028 33.5351 73.7344 34.3041C74.5661 35.0731 75.8679 35.0269 76.6422 34.201L92.9984 16.7531C93.7727 15.9271 93.7262 14.6341 92.8946 13.8651C92.063 13.0961 90.7611 13.1422 89.9868 13.9682L73.6306 31.4161Z" fill="#2980B9"/>
<path d="M87.9511 35.4954C87.4411 34.4869 86.2045 34.0801 85.1891 34.5866C84.1737 35.0932 83.7641 36.3214 84.2741 37.3299L89.5136 47.6889C90.0236 48.6974 91.2602 49.1042 92.2756 48.5976C93.291 48.0911 93.7006 46.8629 93.1906 45.8544L87.9511 35.4954Z" fill="#2980B9"/>
<path d="M83.3345 34.0881C84.4708 34.0881 85.392 33.1732 85.392 32.0446C85.392 30.9161 84.4708 30.0012 83.3345 30.0012C82.1982 30.0012 81.2771 30.9161 81.2771 32.0446C81.2771 33.1732 82.1982 34.0881 83.3345 34.0881Z" fill="#2980B9"/>
<path d="M143.208 39.6484C142.104 39.6484 141.208 40.5378 141.208 41.6349C141.208 42.732 142.104 43.6213 143.208 43.6213C144.313 43.6213 145.208 42.732 145.208 41.6349C145.208 40.5378 144.313 39.6484 143.208 39.6484Z" fill="#2980B9"/>
<path d="M201.372 33.8136C200.118 33.8136 199.102 34.823 199.102 36.0682C199.102 37.3134 200.118 38.3228 201.372 38.3228H212.619C213.872 38.3228 214.889 37.3134 214.889 36.0682C214.889 34.823 213.872 33.8136 212.619 33.8136H201.372Z" fill="#2980B9"/>
<path d="M141.208 36.4523C141.208 37.5506 142.105 38.4409 143.21 38.4409C144.316 38.4409 145.213 37.5506 145.213 36.4523V17.8447C145.213 16.7464 144.316 15.8561 143.21 15.8561C142.105 15.8561 141.208 16.7464 141.208 17.8447V36.4523Z" fill="#2980B9"/>
<path d="M141.797 18.9411C141.045 17.989 141.206 16.5976 142.25 15.9733C144.281 14.7593 146.543 13.9564 148.903 13.6203C151.995 13.1801 155.149 13.5557 158.049 14.7093C160.948 15.8629 163.491 17.7539 165.423 20.1924C167.353 22.631 168.604 25.5312 169.049 28.6018C169.494 31.6723 169.118 34.8052 167.957 37.6856C166.798 40.5661 164.896 43.0927 162.442 45.0118C159.987 46.931 157.068 48.175 153.976 48.6189C151.616 48.958 149.219 48.8213 146.926 48.2256C145.747 47.9194 145.197 46.6296 145.649 45.5051C146.1 44.3808 147.384 43.8526 148.575 44.1107C150.136 44.4493 151.751 44.5086 153.345 44.2798C155.67 43.9459 157.866 43.0103 159.711 41.5671C161.556 40.124 162.987 38.2239 163.86 36.0577C164.731 33.8915 165.014 31.5356 164.679 29.2265C164.345 26.9173 163.404 24.7364 161.953 22.9026C160.501 21.0688 158.588 19.6466 156.408 18.7791C154.228 17.9116 151.855 17.6292 149.53 17.9603C147.936 18.1871 146.403 18.6968 145.002 19.4589C143.932 20.0404 142.551 19.8933 141.797 18.9411Z" fill="#2980B9"/>
<path d="M211.792 41.9924C212.707 42.6164 213.008 43.846 212.317 44.7033C210.966 46.3795 209.207 47.6202 207.228 48.2669C204.66 49.1059 201.902 48.8865 199.471 47.6503C197.041 46.414 195.109 44.2461 194.036 41.5554C192.964 38.8648 192.828 35.8372 193.652 33.0437C194.476 30.2502 196.205 27.8836 198.512 26.3904C200.818 24.8972 203.543 24.3804 206.175 24.9374C208.806 25.4946 211.159 27.0871 212.791 29.4146C214.035 31.1859 214.795 33.2895 215.005 35.4846C215.115 36.6313 214.096 37.5016 212.94 37.4141C211.799 37.3276 210.965 36.3319 210.752 35.2144C210.543 34.1265 210.114 33.0947 209.486 32.1997C208.474 30.7566 207.015 29.7692 205.383 29.4238C203.752 29.0785 202.062 29.3989 200.632 30.3247C199.202 31.2504 198.13 32.7177 197.619 34.4497C197.108 36.1817 197.192 38.0588 197.858 39.727C198.523 41.3952 199.721 42.7393 201.228 43.5057C202.734 44.2722 204.444 44.4082 206.037 43.888C206.921 43.599 207.735 43.1185 208.434 42.4834C209.356 41.6463 210.758 41.2875 211.792 41.9924Z" fill="#2980B9"/>
<path d="M97.0515 26.3567C97.0515 25.2428 97.9607 24.3398 99.0822 24.3398C100.204 24.3398 101.113 25.2428 101.113 26.3567V46.8087C101.113 47.9226 100.204 48.8255 99.0822 48.8255C97.9607 48.8255 97.0515 47.9226 97.0515 46.8087V26.3567Z" fill="#2980B9"/>
<path d="M113.473 34.6384C113.473 33.5246 114.382 32.6216 115.504 32.6216C116.625 32.6216 117.535 33.5246 117.535 34.6384V41.9403C117.535 43.0542 116.625 43.9572 115.504 43.9572C114.382 43.9572 113.473 43.0542 113.473 41.9403V34.6384Z" fill="#2980B9"/>
<path d="M99.1419 35.9008C98.0895 36.0876 97.0388 35.4255 97.0521 34.3637C97.0604 33.6968 97.1606 33.0309 97.3525 32.3795C97.7245 31.1167 98.4312 29.9412 99.4196 28.941C100.408 27.9407 101.653 27.1419 103.06 26.6041C104.468 26.0663 106.001 25.8038 107.546 25.8359C109.092 25.8681 110.608 26.1942 111.982 26.79C113.356 27.3856 114.552 28.2353 115.481 29.2754C116.409 30.3156 117.046 31.5192 117.343 32.7959C117.5 33.4676 117.56 34.1503 117.525 34.8299C117.471 35.8746 116.406 36.4724 115.378 36.2447C114.224 35.9892 113.582 34.7684 113.357 33.6157C113.347 33.5635 113.335 33.5113 113.323 33.4592C113.145 32.6932 112.763 31.9711 112.206 31.347C111.649 30.7229 110.931 30.2131 110.107 29.8557C109.282 29.4982 108.372 29.3025 107.445 29.2833C106.518 29.2639 105.598 29.4215 104.753 29.7442C103.909 30.0668 103.162 30.5462 102.569 31.1463C101.976 31.7463 101.552 32.4517 101.329 33.2094C101.312 33.2679 101.296 33.3265 101.281 33.3852C100.997 34.5181 100.299 35.6955 99.1419 35.9008Z" fill="#2980B9"/>
<path d="M115.435 48.7479C116.565 48.7479 117.482 47.8381 117.482 46.7157C117.482 45.5934 116.565 44.6836 115.435 44.6836C114.305 44.6836 113.389 45.5934 113.389 46.7157C113.389 47.8381 114.305 48.7479 115.435 48.7479Z" fill="#2980B9"/>
<path d="M59.1826 37.1356H32.9861C32.3683 37.1356 31.7505 36.8902 31.2562 36.3993L26.6842 31.8591C26.1899 31.3683 26.1899 30.632 26.6842 30.1412L31.2562 25.601C31.7505 25.1102 32.3683 24.8647 32.9861 24.8647H59.1826C59.924 24.8647 60.4183 25.3556 60.4183 26.0918V35.9085C60.4183 36.6447 59.924 37.1356 59.1826 37.1356Z" fill="#2A84BF"/>
<path d="M20.8764 8.9126H18.405V53.0876H20.8764V8.9126Z" fill="#143D59"/>
<path d="M19.6406 17.5022C21.688 17.5022 23.3477 15.854 23.3477 13.8209C23.3477 11.7878 21.688 10.1396 19.6406 10.1396C17.5933 10.1396 15.9336 11.7878 15.9336 13.8209C15.9336 15.854 17.5933 17.5022 19.6406 17.5022Z" fill="#3095D9"/>
<path d="M19.6406 34.6813C21.688 34.6813 23.3477 33.0332 23.3477 31.0001C23.3477 28.967 21.688 27.3188 19.6406 27.3188C17.5933 27.3188 15.9336 28.967 15.9336 31.0001C15.9336 33.0332 17.5933 34.6813 19.6406 34.6813Z" fill="#2A84BF"/>
<path d="M19.6406 51.8605C21.688 51.8605 23.3477 50.2124 23.3477 48.1793C23.3477 46.1462 21.688 44.498 19.6406 44.498C17.5933 44.498 15.9336 46.1462 15.9336 48.1793C15.9336 50.2124 17.5933 51.8605 19.6406 51.8605Z" fill="#3095D9"/>
<path d="M49.2971 54.3145H32.9861C32.3683 54.3145 31.7505 54.0691 31.2562 53.5783L26.6842 49.0381C26.1899 48.5472 26.1899 47.811 26.6842 47.3202L31.2562 42.7799C31.7505 42.2891 32.3683 42.0437 32.9861 42.0437H49.2971C50.0385 42.0437 50.5328 42.5345 50.5328 43.2708V53.0875C50.5328 53.8237 50.0385 54.3145 49.2971 54.3145Z" fill="#329EE6"/>
<path d="M50.5328 19.9564H32.9861C32.3683 19.9564 31.7505 19.711 31.2562 19.2201L26.6842 14.6799C26.1899 14.1891 26.1899 13.4528 26.6842 12.962L31.2562 8.4218C31.7505 7.93096 32.3683 7.68555 32.9861 7.68555H50.5328C51.2742 7.68555 51.7685 8.17638 51.7685 8.91263V18.7293C51.7685 19.4655 51.2742 19.9564 50.5328 19.9564Z" fill="#3095D9"/>
</svg>
