<svg width="419" height="120" viewBox="0 0 419 120" fill="none" xmlns="http://www.w3.org/2000/svg">
<path d="M249.45 63.7743C251.622 63.7743 253.383 62.0133 253.383 59.8411C253.383 57.6688 251.622 55.9079 249.45 55.9079C247.278 55.9079 245.518 57.6688 245.518 59.8411C245.518 62.0133 247.278 63.7743 249.45 63.7743Z" fill="white"/>
<path d="M240.799 29.9491C240.799 27.7768 239.039 26.0159 236.867 26.0159C234.695 26.0159 232.934 27.7768 232.934 29.9491V90.5202C232.934 92.6924 234.695 94.4534 236.867 94.4534C239.039 94.4534 240.799 92.6924 240.799 90.5202V29.9491Z" fill="white"/>
<path d="M236.867 86.5867C234.695 86.5867 232.934 88.3477 232.934 90.5199C232.934 92.6922 234.695 94.4531 236.867 94.4531H260.462C262.634 94.4531 264.395 92.6922 264.395 90.5199C264.395 88.3477 262.634 86.5867 260.462 86.5867H236.867Z" fill="white"/>
<path d="M236.867 26.0156C234.695 26.0156 232.934 27.7765 232.934 29.9488C232.934 32.121 234.695 33.882 236.867 33.882H260.462C262.634 33.882 264.395 32.121 264.395 29.9488C264.395 27.7765 262.634 26.0156 260.462 26.0156H236.867Z" fill="white"/>
<path d="M340.159 29.9488C340.159 27.7766 338.399 26.0156 336.227 26.0156C334.055 26.0156 332.294 27.7766 332.294 29.9488V90.5199C332.294 92.6922 334.055 94.4531 336.227 94.4531C338.399 94.4531 340.159 92.6922 340.159 90.5199V29.9488Z" fill="white"/>
<path d="M336.227 86.5867C334.055 86.5867 332.294 88.3477 332.294 90.5199C332.294 92.6922 334.055 94.4531 336.227 94.4531H359.822C361.994 94.4531 363.755 92.6922 363.755 90.5199C363.755 88.3477 361.994 86.5867 359.822 86.5867H336.227Z" fill="white"/>
<path d="M146.17 29.6413C146.17 27.4571 144.399 25.6863 142.215 25.6863C140.031 25.6863 138.261 27.4571 138.261 29.6413V90.5485C138.261 92.7328 140.031 94.5035 142.215 94.5035C144.399 94.5035 146.17 92.7328 146.17 90.5485V29.6413Z" fill="white"/>
<path d="M141.519 60.8053C140.031 62.4039 140.12 64.9065 141.719 66.3949C143.317 67.8834 145.819 67.794 147.307 66.1953L178.744 32.4252C180.233 30.8265 180.143 28.324 178.545 26.8355C176.946 25.3471 174.444 25.4365 172.956 27.0351L141.519 60.8053Z" fill="white"/>
<path d="M169.044 68.7006C168.063 66.7487 165.686 65.9613 163.735 66.9418C161.783 67.9223 160.996 70.2994 161.976 72.2513L172.047 92.301C173.027 94.2529 175.404 95.0403 177.355 94.0598C179.307 93.0793 180.094 90.7022 179.114 88.7503L169.044 68.7006Z" fill="white"/>
<path d="M160.17 65.977C162.354 65.977 164.125 64.2063 164.125 62.022C164.125 59.8377 162.354 58.067 160.17 58.067C157.986 58.067 156.216 59.8377 156.216 62.022C156.216 64.2063 157.986 65.977 160.17 65.977Z" fill="white"/>
<path d="M275.249 76.7387C273.126 76.7387 271.405 78.4601 271.405 80.5835C271.405 82.707 273.126 84.4283 275.249 84.4283C277.372 84.4283 279.093 82.707 279.093 80.5835C279.093 78.4601 277.372 76.7387 275.249 76.7387Z" fill="white"/>
<path d="M387.04 65.4454C384.631 65.4454 382.677 67.3992 382.677 69.8092C382.677 72.2192 384.631 74.1729 387.04 74.1729H408.657C411.067 74.1729 413.02 72.2192 413.02 69.8092C413.02 67.3992 411.067 65.4454 408.657 65.4454H387.04Z" fill="white"/>
<path d="M271.405 70.5527C271.405 72.6784 273.128 74.4016 275.253 74.4016C277.378 74.4016 279.101 72.6784 279.101 70.5527V34.5379C279.101 32.4122 277.378 30.689 275.253 30.689C273.128 30.689 271.405 32.4122 271.405 34.5379V70.5527Z" fill="white"/>
<path d="M272.538 36.6602C271.092 34.8173 271.401 32.1244 273.407 30.9159C277.311 28.5663 281.658 27.0124 286.195 26.3618C292.138 25.5098 298.2 26.2369 303.773 28.4695C309.345 30.7024 314.234 34.3624 317.946 39.082C321.655 43.8019 324.06 49.4151 324.915 55.3582C325.77 61.3012 325.048 67.3647 322.818 72.9398C320.589 78.5149 316.933 83.4051 312.216 87.1195C307.499 90.8341 301.889 93.2419 295.946 94.1011C291.409 94.7573 286.802 94.4927 282.394 93.3398C280.128 92.7471 279.071 90.2508 279.94 88.0744C280.807 85.8982 283.275 84.8758 285.565 85.3755C288.564 86.0308 291.669 86.1457 294.732 85.7027C299.201 85.0565 303.421 83.2458 306.967 80.4525C310.515 77.6592 313.264 73.9816 314.941 69.7891C316.617 65.5964 317.161 61.0366 316.516 56.5673C315.874 52.098 314.065 47.8769 311.276 44.3276C308.485 40.7782 304.809 38.0257 300.619 36.3466C296.429 34.6676 291.868 34.121 287.399 34.7618C284.337 35.2008 281.389 36.1872 278.696 37.6624C276.641 38.7879 273.986 38.5031 272.538 36.6602Z" fill="white"/>
<path d="M407.067 81.2758C408.827 82.4836 409.406 84.8634 408.077 86.5228C405.481 89.767 402.099 92.1684 398.296 93.42C393.361 95.044 388.06 94.6193 383.387 92.2266C378.717 89.8338 375.003 85.6378 372.941 80.43C370.881 75.2224 370.618 69.3626 372.202 63.9558C373.787 58.549 377.109 53.9686 381.543 51.0785C385.977 48.1884 391.214 47.1881 396.271 48.2662C401.328 49.3446 405.851 52.4269 408.989 56.9318C411.379 60.36 412.839 64.4315 413.245 68.6801C413.456 70.8996 411.496 72.584 409.275 72.4146C407.082 72.2472 405.479 70.32 405.069 68.1572C404.668 66.0515 403.843 64.0544 402.636 62.3222C400.691 59.5291 397.886 57.618 394.751 56.9496C391.615 56.2812 388.367 56.9013 385.618 58.6931C382.87 60.4849 380.81 63.3248 379.828 66.6771C378.846 70.0294 379.008 73.6624 380.287 76.8912C381.564 80.1199 383.868 82.7215 386.764 84.2048C389.658 85.6884 392.946 85.9516 396.007 84.9448C397.706 84.3853 399.271 83.4553 400.614 82.2262C402.385 80.606 405.08 79.9116 407.067 81.2758Z" fill="white"/>
<path d="M186.535 51.0129C186.535 48.8571 188.282 47.1094 190.438 47.1094C192.593 47.1094 194.341 48.8571 194.341 51.0129V90.5974C194.341 92.7534 192.593 94.5009 190.438 94.5009C188.282 94.5009 186.535 92.7534 186.535 90.5974V51.0129Z" fill="white"/>
<path d="M218.098 67.0418C218.098 64.886 219.845 63.1383 222.001 63.1383C224.156 63.1383 225.904 64.886 225.904 67.0418V81.1746C225.904 83.3304 224.156 85.0781 222.001 85.0781C219.845 85.0781 218.098 83.3304 218.098 81.1746V67.0418Z" fill="white"/>
<path d="M190.552 69.4854C188.53 69.8468 186.51 68.5655 186.536 66.5102C186.552 65.2195 186.744 63.9307 187.113 62.67C187.828 60.2257 189.186 57.9506 191.086 56.0147C192.986 54.0787 195.378 52.5326 198.083 51.4917C200.788 50.4509 203.736 49.9427 206.706 50.0048C209.676 50.0672 212.591 50.6984 215.232 51.8515C217.873 53.0044 220.172 54.649 221.956 56.662C223.741 58.6753 224.965 61.0048 225.536 63.4758C225.837 64.7759 225.953 66.0973 225.885 67.4126C225.781 69.4345 223.735 70.5916 221.759 70.151C219.541 69.6565 218.306 67.2935 217.874 65.0625C217.854 64.9615 217.833 64.8605 217.809 64.7597C217.466 63.277 216.732 61.8794 215.662 60.6715C214.591 59.4635 213.211 58.4768 211.627 57.7852C210.042 57.0933 208.293 56.7145 206.512 56.6773C204.73 56.6398 202.961 56.9447 201.338 57.5693C199.715 58.1937 198.279 59.1216 197.14 60.2831C196 61.4445 195.185 62.8097 194.756 64.2762C194.723 64.3894 194.692 64.5028 194.663 64.6165C194.117 66.8091 192.777 69.0879 190.552 69.4854Z" fill="white"/>
<path d="M221.869 94.3509C224.041 94.3509 225.801 92.5899 225.801 90.4177C225.801 88.2454 224.041 86.4845 221.869 86.4845C219.697 86.4845 217.936 88.2454 217.936 90.4177C217.936 92.5899 219.697 94.3509 221.869 94.3509Z" fill="white"/>
<path d="M113.75 71.875H63.4C62.2125 71.875 61.025 71.4 60.075 70.45L51.2875 61.6625C50.3375 60.7125 50.3375 59.2875 51.2875 58.3375L60.075 49.55C61.025 48.6 62.2125 48.125 63.4 48.125H113.75C115.175 48.125 116.125 49.075 116.125 50.5V69.5C116.125 70.925 115.175 71.875 113.75 71.875Z" fill="white"/>
<path d="M40.125 17.25H35.375V102.75H40.125V17.25Z" fill="white"/>
<path d="M37.75 33.875C41.685 33.875 44.875 30.685 44.875 26.75C44.875 22.815 41.685 19.625 37.75 19.625C33.815 19.625 30.625 22.815 30.625 26.75C30.625 30.685 33.815 33.875 37.75 33.875Z" fill="#F3F3F3"/>
<path d="M37.75 67.125C41.685 67.125 44.875 63.935 44.875 60C44.875 56.065 41.685 52.875 37.75 52.875C33.815 52.875 30.625 56.065 30.625 60C30.625 63.935 33.815 67.125 37.75 67.125Z" fill="white"/>
<path d="M37.75 100.375C41.685 100.375 44.875 97.185 44.875 93.25C44.875 89.315 41.685 86.125 37.75 86.125C33.815 86.125 30.625 89.315 30.625 93.25C30.625 97.185 33.815 100.375 37.75 100.375Z" fill="#E9E9E9"/>
<path d="M94.75 105.125H63.4C62.2125 105.125 61.025 104.65 60.075 103.7L51.2875 94.9125C50.3375 93.9625 50.3375 92.5375 51.2875 91.5875L60.075 82.8C61.025 81.85 62.2125 81.375 63.4 81.375H94.75C96.175 81.375 97.125 82.325 97.125 83.75V102.75C97.125 104.175 96.175 105.125 94.75 105.125Z" fill="#E9E9E9"/>
<path d="M97.125 38.625H63.4C62.2125 38.625 61.025 38.15 60.075 37.2L51.2875 28.4125C50.3375 27.4625 50.3375 26.0375 51.2875 25.0875L60.075 16.3C61.025 15.35 62.2125 14.875 63.4 14.875H97.125C98.55 14.875 99.5 15.825 99.5 17.25V36.25C99.5 37.675 98.55 38.625 97.125 38.625Z" fill="#F3F3F3"/>
</svg>
