<svg width="419" height="120" viewBox="0 0 419 120" fill="none" xmlns="http://www.w3.org/2000/svg">
<g clip-path="url(#clip0)">
<path d="M249.45 63.7743C251.622 63.7743 253.383 62.0133 253.383 59.8411C253.383 57.6688 251.622 55.9079 249.45 55.9079C247.278 55.9079 245.518 57.6688 245.518 59.8411C245.518 62.0133 247.278 63.7743 249.45 63.7743Z" fill="#2980B9"/>
<path d="M240.799 29.9491C240.799 27.7768 239.039 26.0159 236.867 26.0159C234.695 26.0159 232.934 27.7768 232.934 29.9491V90.5202C232.934 92.6924 234.695 94.4534 236.867 94.4534C239.039 94.4534 240.799 92.6924 240.799 90.5202V29.9491Z" fill="#2980B9"/>
<path d="M236.867 86.5867C234.695 86.5867 232.934 88.3477 232.934 90.5199C232.934 92.6922 234.695 94.4531 236.867 94.4531H260.462C262.634 94.4531 264.395 92.6922 264.395 90.5199C264.395 88.3477 262.634 86.5867 260.462 86.5867H236.867Z" fill="#2980B9"/>
<path d="M236.867 26.0156C234.695 26.0156 232.934 27.7765 232.934 29.9488C232.934 32.121 234.695 33.882 236.867 33.882H260.462C262.634 33.882 264.395 32.121 264.395 29.9488C264.395 27.7765 262.634 26.0156 260.462 26.0156H236.867Z" fill="#2980B9"/>
<path d="M340.159 29.9488C340.159 27.7766 338.399 26.0156 336.227 26.0156C334.055 26.0156 332.294 27.7766 332.294 29.9488V90.5199C332.294 92.6922 334.055 94.4531 336.227 94.4531C338.399 94.4531 340.159 92.6922 340.159 90.5199V29.9488Z" fill="#2980B9"/>
<path d="M336.227 86.5867C334.055 86.5867 332.294 88.3477 332.294 90.5199C332.294 92.6922 334.055 94.4531 336.227 94.4531H359.822C361.994 94.4531 363.755 92.6922 363.755 90.5199C363.755 88.3477 361.994 86.5867 359.822 86.5867H336.227Z" fill="#2980B9"/>
<path d="M146.17 29.6413C146.17 27.4571 144.399 25.6863 142.215 25.6863C140.031 25.6863 138.261 27.4571 138.261 29.6413V90.5485C138.261 92.7328 140.031 94.5035 142.215 94.5035C144.399 94.5035 146.17 92.7328 146.17 90.5485V29.6413Z" fill="#2980B9"/>
<path d="M141.519 60.8053C140.031 62.404 140.12 64.9065 141.719 66.395C143.317 67.8834 145.819 67.794 147.307 66.1954L178.744 32.4252C180.233 30.8266 180.143 28.324 178.545 26.8356C176.946 25.3471 174.444 25.4365 172.956 27.0351L141.519 60.8053Z" fill="#2980B9"/>
<path d="M169.044 68.7006C168.063 66.7487 165.686 65.9613 163.735 66.9418C161.783 67.9223 160.996 70.2994 161.976 72.2513L172.047 92.301C173.027 94.2529 175.404 95.0403 177.355 94.0598C179.307 93.0793 180.094 90.7022 179.114 88.7503L169.044 68.7006Z" fill="#2980B9"/>
<path d="M160.17 65.977C162.354 65.977 164.125 64.2063 164.125 62.022C164.125 59.8377 162.354 58.067 160.17 58.067C157.986 58.067 156.216 59.8377 156.216 62.022C156.216 64.2063 157.986 65.977 160.17 65.977Z" fill="#2980B9"/>
<path d="M275.249 76.7387C273.126 76.7387 271.405 78.4601 271.405 80.5835C271.405 82.7069 273.126 84.4283 275.249 84.4283C277.372 84.4283 279.093 82.7069 279.093 80.5835C279.093 78.4601 277.372 76.7387 275.249 76.7387Z" fill="#2980B9"/>
<path d="M387.04 65.4455C384.631 65.4455 382.677 67.3992 382.677 69.8092C382.677 72.2192 384.631 74.1729 387.04 74.1729H408.657C411.067 74.1729 413.02 72.2192 413.02 69.8092C413.02 67.3992 411.067 65.4455 408.657 65.4455H387.04Z" fill="#2980B9"/>
<path d="M271.405 70.5527C271.405 72.6784 273.128 74.4016 275.253 74.4016C277.378 74.4016 279.101 72.6784 279.101 70.5527V34.538C279.101 32.4123 277.378 30.6891 275.253 30.6891C273.128 30.6891 271.405 32.4123 271.405 34.538V70.5527Z" fill="#2980B9"/>
<path d="M272.538 36.6602C271.092 34.8174 271.401 32.1244 273.407 30.9159C277.311 28.5663 281.658 27.0124 286.195 26.3618C292.138 25.5099 298.2 26.2369 303.773 28.4695C309.345 30.7024 314.234 34.3624 317.946 39.082C321.655 43.8019 324.06 49.4152 324.915 55.3582C325.77 61.3013 325.048 67.3648 322.818 72.9399C320.589 78.5149 316.933 83.4052 312.216 87.1195C307.499 90.8342 301.889 93.2419 295.946 94.1011C291.409 94.7574 286.802 94.4928 282.394 93.3399C280.128 92.7471 279.071 90.2508 279.94 88.0744C280.807 85.8982 283.275 84.8759 285.565 85.3756C288.564 86.0309 291.669 86.1457 294.732 85.7028C299.201 85.0566 303.421 83.2458 306.967 80.4525C310.515 77.6592 313.264 73.9817 314.941 69.7892C316.617 65.5964 317.161 61.0367 316.516 56.5674C315.874 52.0981 314.065 47.877 311.276 44.3276C308.485 40.7782 304.809 38.0257 300.619 36.3467C296.429 34.6676 291.868 34.121 287.399 34.7618C284.337 35.2008 281.389 36.1873 278.696 37.6624C276.641 38.7879 273.986 38.5031 272.538 36.6602Z" fill="#2980B9"/>
<path d="M407.067 81.2759C408.827 82.4836 409.406 84.8635 408.077 86.5228C405.481 89.7671 402.099 92.1685 398.296 93.42C393.361 95.044 388.06 94.6193 383.387 92.2266C378.717 89.8339 375.003 85.6378 372.941 80.43C370.881 75.2224 370.618 69.3626 372.202 63.9558C373.787 58.549 377.109 53.9686 381.543 51.0785C385.977 48.1884 391.214 47.1881 396.271 48.2663C401.328 49.3446 405.851 52.4269 408.989 56.9318C411.379 60.36 412.839 64.4316 413.245 68.6801C413.456 70.8996 411.496 72.5841 409.275 72.4146C407.082 72.2473 405.479 70.32 405.069 68.1572C404.668 66.0516 403.843 64.0545 402.636 62.3222C400.691 59.5292 397.886 57.6181 394.751 56.9496C391.615 56.2812 388.367 56.9013 385.618 58.6931C382.87 60.4849 380.81 63.3249 379.828 66.6771C378.846 70.0294 379.008 73.6624 380.287 76.8912C381.564 80.1199 383.868 82.7215 386.764 84.2049C389.658 85.6885 392.946 85.9517 396.007 84.9448C397.706 84.3853 399.271 83.4553 400.614 82.2263C402.385 80.606 405.08 79.9116 407.067 81.2759Z" fill="#2980B9"/>
<path d="M186.535 51.0129C186.535 48.8571 188.282 47.1094 190.438 47.1094C192.593 47.1094 194.341 48.8571 194.341 51.0129V90.5974C194.341 92.7534 192.593 94.5009 190.438 94.5009C188.282 94.5009 186.535 92.7534 186.535 90.5974V51.0129Z" fill="#2980B9"/>
<path d="M218.098 67.0418C218.098 64.886 219.845 63.1383 222.001 63.1383C224.156 63.1383 225.904 64.886 225.904 67.0418V81.1746C225.904 83.3304 224.156 85.0781 222.001 85.0781C219.845 85.0781 218.098 83.3304 218.098 81.1746V67.0418Z" fill="#2980B9"/>
<path d="M190.552 69.4854C188.53 69.8468 186.51 68.5655 186.536 66.5102C186.552 65.2195 186.744 63.9307 187.113 62.67C187.828 60.2257 189.186 57.9506 191.086 56.0147C192.986 54.0787 195.378 52.5326 198.083 51.4917C200.788 50.4509 203.736 49.9427 206.706 50.0048C209.676 50.0672 212.591 50.6984 215.232 51.8515C217.873 53.0044 220.172 54.649 221.956 56.662C223.741 58.6753 224.965 61.0048 225.536 63.4758C225.837 64.7759 225.953 66.0973 225.885 67.4126C225.781 69.4345 223.735 70.5916 221.759 70.151C219.541 69.6565 218.306 67.2935 217.874 65.0625C217.854 64.9615 217.833 64.8605 217.809 64.7597C217.466 63.277 216.732 61.8794 215.662 60.6715C214.591 59.4635 213.211 58.4768 211.627 57.7852C210.042 57.0933 208.293 56.7145 206.511 56.6773C204.73 56.6398 202.961 56.9447 201.338 57.5693C199.715 58.1937 198.279 59.1216 197.14 60.2831C196 61.4445 195.185 62.8097 194.756 64.2762C194.723 64.3894 194.692 64.5028 194.663 64.6165C194.117 66.8091 192.777 69.0879 190.552 69.4854Z" fill="#2980B9"/>
<path d="M221.869 94.3508C224.041 94.3508 225.801 92.5899 225.801 90.4177C225.801 88.2454 224.041 86.4845 221.869 86.4845C219.697 86.4845 217.936 88.2454 217.936 90.4177C217.936 92.5899 219.697 94.3508 221.869 94.3508Z" fill="#2980B9"/>
<path d="M51.1117 35.7823L68.1191 52.7927C68.854 53.5277 69.9699 53.703 70.889 53.247C71.8147 52.7876 72.3429 51.7906 72.202 50.7623C71.6087 46.4981 70.3353 42.3827 68.4165 38.5306C66.5001 34.6805 63.9851 31.1836 60.9406 28.1365L59.8533 27.0497L60.4946 26.4082C61.7798 25.1229 61.9522 23.1424 61.0175 21.6673L64.7254 14.2061C65.4043 12.8393 65.1355 11.1959 64.0566 10.117L62.1104 8.17064C61.0318 7.0917 59.3883 6.8224 58.0217 7.50178L50.5614 11.2101C49.0863 10.2752 47.1066 10.4478 45.8214 11.7331L45.1805 12.374L44.0932 11.2864C38.016 5.21063 29.9822 1.21083 21.4629 0.0228833C20.3841 -0.127556 19.3364 0.475345 18.9177 1.49041C18.5456 2.39213 18.7526 3.41979 19.4415 4.10466L36.4488 21.1169C35.3439 22.308 35.1391 24.0354 35.8374 25.425L24.7632 37.9388C24.1347 38.6491 24.2008 39.7343 24.911 40.3629C25.6188 40.9894 26.7042 40.9275 27.3348 40.215L38.1409 28.0043L44.2254 34.0894L5.33576 68.5163C4.8836 68.917 4.19471 68.8959 3.76727 68.4684C3.34005 68.0412 3.319 67.3523 3.71966 66.8995L22.0309 46.2082C22.6593 45.4978 22.5931 44.4127 21.883 43.7838C21.173 43.1552 20.0876 43.2213 19.4591 43.932L1.14814 64.6231C-0.453552 66.4324 -0.369759 69.1884 1.33885 70.897C3.04975 72.6082 5.80556 72.6874 7.61171 71.0881L46.8038 36.3935C47.3418 36.6638 47.9303 36.8016 48.5194 36.8016C49.4518 36.8018 50.3817 36.4594 51.1117 35.7823ZM65.3427 40.0617C66.6083 42.6033 67.567 45.2705 68.2058 48.0213L53.5453 33.3588L57.4248 29.4785L58.5124 30.5653C61.2935 33.3488 63.5914 36.5435 65.3427 40.0617ZM59.5498 10.5774C59.5945 10.5555 59.6475 10.5641 59.682 10.599L61.6284 12.5455C61.6633 12.5803 61.6717 12.6334 61.6502 12.6774L58.5004 19.0158L53.2128 13.7273L59.5498 10.5774ZM24.22 4.02727C30.7845 5.56577 36.8868 8.93817 41.6647 13.7151L42.7521 14.8028L38.8719 18.6835L24.22 4.02727ZM38.9736 23.9796C38.8245 23.8308 38.8245 23.5882 38.9736 23.4394L48.2501 14.1616C48.3992 14.0126 48.6417 14.0133 48.7898 14.1616L58.0662 23.4394C58.215 23.5884 58.215 23.8308 58.0662 23.9798L48.7901 33.2573C48.6415 33.4062 48.3987 33.4064 48.2501 33.2576L38.9736 23.9796ZM77.1499 62.5636C77.8208 63.2344 78.9077 63.2344 79.5784 62.5636C80.249 61.8928 80.249 60.8055 79.5784 60.135L75.1735 55.7295C74.5025 55.0589 73.4157 55.0589 72.745 55.7295C72.0746 56.4002 72.0746 57.4875 72.745 58.1581L77.1499 62.5636ZM84.2356 54.7765C85.1226 55.0341 86.0958 54.5259 86.3623 53.6039C86.6254 52.6929 86.1007 51.7404 85.1899 51.477L78.3563 49.5C77.4454 49.2368 76.4933 49.7611 76.2296 50.6726C75.9662 51.5836 76.4912 52.5359 77.402 52.7995L84.2356 54.7765ZM67.6891 59.2148C66.778 59.4783 66.2533 60.4308 66.5167 61.3418L68.4934 68.1762C68.7582 69.0975 69.729 69.6063 70.62 69.3488C71.5309 69.0851 72.0558 68.1328 71.7924 67.2218L69.8158 60.3874C69.5517 59.4759 68.6002 58.9514 67.6891 59.2148Z" fill="#2980B9"/>
<path d="M115.453 49.1243C116.401 49.1243 117.17 48.3553 117.17 47.4068V5.15227C117.17 2.31132 114.859 0.000233878 112.019 0.000233878H77.4785C74.358 -0.0338841 72.6707 3.67259 74.5958 6.02238L92.461 28.2166C92.9747 28.8551 93.2266 29.6564 93.1696 30.4739L90.9732 62.0981C90.8879 63.3286 90.1279 64.3887 88.9902 64.8645L66.007 74.4738C62.9423 75.7552 61.3013 79.0247 62.1046 82.2478L64.7791 92.9817C65.0612 94.1149 64.71 95.3175 63.8617 96.12L48.3001 110.847C45.9032 113.121 47.5478 117.238 50.8436 117.237H112.018C114.859 117.237 117.17 114.926 117.17 112.085V55.4128C117.17 54.4645 116.401 53.6955 115.453 53.6955C114.504 53.6955 113.735 54.4645 113.735 55.4128V112.085C113.735 113.032 112.965 113.802 112.018 113.802H50.8441C50.6425 113.823 50.5031 113.463 50.6611 113.342L66.2224 98.6149C67.9692 96.9619 68.6931 94.485 68.1117 92.1511L65.4371 81.417C65.0472 79.8523 65.8439 78.2644 67.3318 77.6426L90.3149 68.0332C92.6583 67.0535 94.2237 64.8703 94.3997 62.336L96.5957 30.712C96.7131 29.0283 96.1945 27.3771 95.1362 26.0625L77.2711 3.86838C77.1398 3.73624 77.2997 3.41613 77.4787 3.4347H112.019C112.966 3.4347 113.736 4.20497 113.736 5.15203V47.4066C113.736 48.3553 114.504 49.1243 115.453 49.1243Z" fill="#2980B9"/>
<path d="M93.4089 40.5295C93.4089 41.4148 93.6798 42.1324 94.0142 42.1324H104.709C105.043 42.1324 106.23 41.6744 106.23 40.5295C106.23 39.3846 105.043 38.9266 104.709 38.9266H94.0142C93.6798 38.9266 93.4089 39.6443 93.4089 40.5295Z" fill="#2980B9"/>
<path d="M93.4089 50.3758C93.4089 51.2608 93.6798 51.9785 94.0142 51.9785H104.709C105.043 51.9785 106.23 51.5205 106.23 50.3758C106.23 49.2309 105.043 48.7729 104.709 48.7729H94.0142C93.6798 48.7729 93.4089 49.4906 93.4089 50.3758Z" fill="#2980B9"/>
<path d="M93.4089 60.2219C93.4089 61.1072 93.6798 61.8248 94.0142 61.8248H104.709C105.043 61.8248 106.23 61.3669 106.23 60.2219C106.23 59.077 105.043 58.619 104.709 58.619H94.0142C93.6798 58.619 93.4089 59.3367 93.4089 60.2219Z" fill="#2980B9"/>
<path d="M64.5615 79.9141C64.5615 80.7994 65.191 81.517 65.9676 81.517H104.315C105.092 81.517 106.23 80.8301 106.23 79.9141C106.23 78.7692 105.092 78.3112 104.315 78.3112H65.9676C65.191 78.3112 64.5615 79.0289 64.5615 79.9141Z" fill="#2980B9"/>
<path d="M80.3586 70.068C80.3586 70.9533 80.7427 71.6709 81.2163 71.6709H104.604C105.078 71.6709 106.23 71.3273 106.23 70.068C106.23 68.6198 105.078 68.4651 104.604 68.4651H81.2163C80.7427 68.4651 80.3586 69.1828 80.3586 70.068Z" fill="#2980B9"/>
<path d="M98.8297 96.682L96.6145 99.6288L94.0801 98.7867L94.9696 104.995H102.69L103.58 98.7867L101.045 99.6288L98.8297 96.682ZM101.549 103.683H96.1104L95.6841 100.703L97.0974 101.174L98.8297 98.8702L100.562 101.174L101.975 100.703L101.549 103.683Z" fill="#2980B9"/>
<path d="M107.451 95.4982C107.287 94.7684 106.918 94.1006 106.386 93.5681C105.854 93.0354 105.187 92.6665 104.458 92.5019C103.211 92.22 102.028 91.7299 100.946 91.0462C99.6813 90.2475 97.9762 90.2475 96.7131 91.0462C95.6298 91.7292 94.4475 92.22 93.2013 92.5019C92.4711 92.6665 91.8046 93.0354 91.2722 93.5681C90.74 94.1006 90.3712 94.7683 90.2069 95.4975C89.925 96.7441 89.4362 97.927 88.7521 99.0119C88.3542 99.644 88.1431 100.377 88.1431 101.13C88.1431 101.883 88.3542 102.616 88.7535 103.247C89.4369 104.333 89.9264 105.516 90.2083 106.762C90.3726 107.492 90.7412 108.159 91.2736 108.692C91.8046 109.224 92.4711 109.592 93.2013 109.758C94.4489 110.041 95.6312 110.53 96.7138 111.214C97.3449 111.613 98.077 111.824 98.8297 111.824C99.5826 111.824 100.314 111.613 100.946 111.213C102.029 110.53 103.211 110.04 104.459 109.757C105.189 109.591 105.856 109.223 106.387 108.691C106.919 108.158 107.288 107.491 107.452 106.762C107.734 105.515 108.223 104.332 108.907 103.247C109.305 102.616 109.517 101.883 109.517 101.13C109.517 100.377 109.305 99.6441 108.906 99.0126C108.223 97.927 107.733 96.7441 107.451 95.4982ZM107.777 102.535C107.011 103.749 106.464 105.073 106.148 106.468C106.039 106.951 105.795 107.393 105.442 107.747C105.089 108.1 104.647 108.344 104.164 108.454C102.767 108.771 101.445 109.318 100.232 110.083C99.3961 110.614 98.2633 110.614 97.4257 110.083C96.2149 109.318 94.8918 108.771 93.4952 108.454C93.0115 108.344 92.57 108.1 92.2173 107.747C91.8639 107.393 91.6195 106.951 91.5108 106.468C91.1949 105.073 90.6477 103.75 89.8823 102.534C89.6185 102.116 89.4788 101.63 89.4788 101.13C89.4788 100.63 89.6185 100.144 89.883 99.7249C90.6484 98.5106 91.1953 97.1873 91.5115 95.7916C91.6202 95.3083 91.8639 94.8666 92.218 94.5131C92.5721 94.1594 93.0129 93.915 93.4963 93.806C94.8923 93.4898 96.2142 92.9416 97.4272 92.1764C97.8445 91.9125 98.3301 91.7728 98.8297 91.7728C99.3293 91.7728 99.8148 91.9125 100.234 92.1771C101.445 92.9423 102.768 93.4905 104.164 93.8067C104.647 93.9155 105.089 94.1594 105.442 94.5138C105.795 94.868 106.04 95.3091 106.149 95.793C106.465 97.1878 107.012 98.5106 107.777 99.7263C108.041 100.144 108.181 100.63 108.181 101.13C108.181 101.63 108.041 102.116 107.777 102.535Z" fill="#2980B9"/>
</g>
<defs>
<clipPath id="clip0">
<rect width="419" height="120" fill="white"/>
</clipPath>
</defs>
</svg>
