<svg width="192" height="55" viewBox="0 0 192 55" fill="none" xmlns="http://www.w3.org/2000/svg">
<g clip-path="url(#clip0_107_25)">
<path d="M114.307 29.2235C115.302 29.2235 116.109 28.4166 116.109 27.4212C116.109 26.4258 115.302 25.6189 114.307 25.6189C113.311 25.6189 112.505 26.4258 112.505 27.4212C112.505 28.4166 113.311 29.2235 114.307 29.2235Z" fill="white"/>
<path d="M110.342 13.7237C110.342 12.7283 109.536 11.9214 108.54 11.9214C107.545 11.9214 106.738 12.7283 106.738 13.7237V41.4794C106.738 42.4748 107.545 43.2817 108.54 43.2817C109.536 43.2817 110.342 42.4748 110.342 41.4794V13.7237Z" fill="white"/>
<path d="M108.54 39.677C107.545 39.677 106.738 40.4839 106.738 41.4793C106.738 42.4747 107.545 43.2816 108.54 43.2816H119.353C120.348 43.2816 121.155 42.4747 121.155 41.4793C121.155 40.4839 120.348 39.677 119.353 39.677H108.54Z" fill="white"/>
<path d="M108.54 11.9212C107.545 11.9212 106.738 12.7281 106.738 13.7235C106.738 14.7189 107.545 15.5258 108.54 15.5258H119.353C120.348 15.5258 121.155 14.7189 121.155 13.7235C121.155 12.7281 120.348 11.9212 119.353 11.9212H108.54Z" fill="white"/>
<path d="M155.873 13.7236C155.873 12.7282 155.066 11.9212 154.071 11.9212C153.075 11.9212 152.268 12.7282 152.268 13.7236V41.4793C152.268 42.4747 153.075 43.2816 154.071 43.2816C155.066 43.2816 155.873 42.4747 155.873 41.4793V13.7236Z" fill="white"/>
<path d="M154.071 39.677C153.075 39.677 152.268 40.4839 152.268 41.4793C152.268 42.4747 153.075 43.2816 154.071 43.2816H164.883C165.878 43.2816 166.685 42.4747 166.685 41.4793C166.685 40.4839 165.878 39.677 164.883 39.677H154.071Z" fill="white"/>
<path d="M66.9798 13.5827C66.9798 12.5818 66.1685 11.7704 65.1678 11.7704C64.167 11.7704 63.3557 12.5818 63.3557 13.5827V41.4924C63.3557 42.4933 64.167 43.3047 65.1678 43.3047C66.1685 43.3047 66.9798 42.4933 66.9798 41.4924V13.5827Z" fill="white"/>
<path d="M64.8488 27.8631C64.1669 28.5956 64.2078 29.7424 64.9403 30.4244C65.6727 31.1065 66.8193 31.0655 67.5013 30.333L81.9068 14.8583C82.5887 14.1258 82.5478 12.979 81.8153 12.297C81.0829 11.6149 79.9363 11.6559 79.2543 12.3884L64.8488 27.8631Z" fill="white"/>
<path d="M77.4615 31.4809C77.0122 30.5865 75.9231 30.2257 75.0288 30.675C74.1346 31.1243 73.7738 32.2136 74.223 33.108L78.8376 42.2954C79.2868 43.1898 80.3759 43.5507 81.2702 43.1014C82.1645 42.6521 82.5252 41.5628 82.076 40.6684L77.4615 31.4809Z" fill="white"/>
<path d="M73.3954 30.2329C74.3962 30.2329 75.2075 29.4215 75.2075 28.4206C75.2075 27.4197 74.3962 26.6082 73.3954 26.6082C72.3947 26.6082 71.5834 27.4197 71.5834 28.4206C71.5834 29.4215 72.3947 30.2329 73.3954 30.2329Z" fill="white"/>
<path d="M126.128 35.1643C125.155 35.1643 124.367 35.9531 124.367 36.9261C124.367 37.8991 125.155 38.6879 126.128 38.6879C127.101 38.6879 127.89 37.8991 127.89 36.9261C127.89 35.9531 127.101 35.1643 126.128 35.1643Z" fill="white"/>
<path d="M177.355 29.9893C176.251 29.9893 175.356 30.8846 175.356 31.9889C175.356 33.0933 176.251 33.9885 177.355 33.9885H187.26C188.365 33.9885 189.26 33.0933 189.26 31.9889C189.26 30.8846 188.365 29.9893 187.26 29.9893H177.355Z" fill="white"/>
<path d="M124.367 32.3297C124.367 33.3037 125.156 34.0934 126.13 34.0934C127.104 34.0934 127.894 33.3037 127.894 32.3297V15.8265C127.894 14.8524 127.104 14.0628 126.13 14.0628C125.156 14.0628 124.367 14.8524 124.367 15.8265V32.3297Z" fill="white"/>
<path d="M124.886 16.799C124.223 15.9545 124.365 14.7205 125.284 14.1667C127.073 13.0901 129.065 12.378 131.144 12.0799C133.867 11.6895 136.645 12.0226 139.199 13.0457C141.752 14.0689 143.992 15.746 145.693 17.9087C147.393 20.0715 148.495 22.6437 148.887 25.367C149.279 28.0903 148.948 30.8688 147.926 33.4235C146.905 35.9782 145.23 38.2191 143.068 39.9211C140.906 41.6233 138.336 42.7266 135.612 43.1203C133.533 43.421 131.422 43.2998 129.402 42.7715C128.364 42.4999 127.88 41.356 128.278 40.3587C128.675 39.3615 129.806 38.893 130.855 39.122C132.23 39.4223 133.653 39.4749 135.056 39.2719C137.104 38.9758 139.038 38.1461 140.663 36.8661C142.288 35.5861 143.548 33.9009 144.317 31.9798C145.085 30.0585 145.334 27.9691 145.038 25.9211C144.744 23.8731 143.915 21.9389 142.637 20.3124C141.358 18.686 139.674 17.4247 137.754 16.6553C135.834 15.8859 133.744 15.6354 131.696 15.929C130.293 16.1302 128.942 16.5822 127.708 17.2582C126.766 17.7739 125.55 17.6434 124.886 16.799Z" fill="white"/>
<path d="M186.532 37.2434C187.339 37.7968 187.604 38.8873 186.995 39.6477C185.805 41.1343 184.256 42.2347 182.513 42.8082C180.251 43.5524 177.822 43.3578 175.681 42.2613C173.541 41.1649 171.839 39.2422 170.894 36.8558C169.95 34.4695 169.83 31.7843 170.556 29.3067C171.282 26.8291 172.804 24.7302 174.836 23.4059C176.868 22.0816 179.268 21.6232 181.585 22.1172C183.902 22.6114 185.975 24.0238 187.413 26.0881C188.508 27.659 189.177 29.5247 189.363 31.4715C189.459 32.4886 188.562 33.2605 187.544 33.1828C186.539 33.1061 185.804 32.223 185.616 31.2319C185.432 30.2671 185.054 29.3519 184.501 28.5581C183.61 27.2783 182.325 26.4025 180.888 26.0962C179.451 25.7899 177.963 26.0741 176.703 26.8952C175.444 27.7162 174.5 29.0176 174.05 30.5537C173.6 32.0898 173.674 33.7546 174.26 35.2341C174.846 36.7137 175.901 37.9058 177.228 38.5855C178.555 39.2654 180.061 39.386 181.464 38.9246C182.242 38.6682 182.959 38.2421 183.575 37.6789C184.387 36.9364 185.621 36.6182 186.532 37.2434Z" fill="white"/>
<path d="M85.4765 23.3758C85.4765 22.388 86.2773 21.5871 87.265 21.5871C88.2528 21.5871 89.0534 22.388 89.0534 23.3758V41.5148C89.0534 42.5028 88.2528 43.3035 87.265 43.3035C86.2773 43.3035 85.4765 42.5028 85.4765 41.5148V23.3758Z" fill="white"/>
<path d="M99.9399 30.7208C99.9399 29.733 100.741 28.9321 101.728 28.9321C102.716 28.9321 103.517 29.733 103.517 30.7208V37.197C103.517 38.1848 102.716 38.9857 101.728 38.9857C100.741 38.9857 99.9399 38.1848 99.9399 37.197V30.7208Z" fill="white"/>
<path d="M87.3176 31.8406C86.3907 32.0062 85.4653 31.419 85.477 30.4773C85.4843 29.8858 85.5726 29.2952 85.7416 28.7175C86.0693 27.5975 86.6916 26.5549 87.5622 25.6678C88.4327 24.7807 89.5289 24.0722 90.7685 23.5953C92.008 23.1183 93.3589 22.8855 94.7198 22.9139C96.0806 22.9425 97.4163 23.2317 98.6265 23.7601C99.8367 24.2884 100.89 25.042 101.708 25.9645C102.526 26.887 103.086 27.9545 103.348 29.0868C103.486 29.6825 103.539 30.288 103.508 30.8907C103.461 31.8173 102.523 32.3475 101.618 32.1456C100.601 31.919 100.035 30.8362 99.8371 29.8139C99.8282 29.7676 99.8183 29.7213 99.8077 29.6751C99.6505 28.9957 99.314 28.3553 98.8234 27.8017C98.3328 27.2482 97.7006 26.7961 96.9745 26.4791C96.2484 26.1621 95.447 25.9885 94.6305 25.9714C93.814 25.9543 93.0035 26.094 92.2598 26.3802C91.516 26.6663 90.8583 27.0915 90.336 27.6238C89.8137 28.1559 89.4402 28.7815 89.2436 29.4535C89.2284 29.5054 89.2144 29.5574 89.2014 29.6095C88.9511 30.6142 88.3367 31.6584 87.3176 31.8406Z" fill="white"/>
<path d="M101.668 43.2348C102.663 43.2348 103.47 42.4278 103.47 41.4324C103.47 40.4371 102.663 39.6301 101.668 39.6301C100.673 39.6301 99.8658 40.4371 99.8658 41.4324C99.8658 42.4278 100.673 43.2348 101.668 43.2348Z" fill="white"/>
<path d="M23.4211 16.3966L31.2145 24.1914C31.5512 24.5282 32.0626 24.6086 32.4838 24.3996C32.9079 24.1891 33.15 23.7322 33.0854 23.261C32.8135 21.307 32.23 19.4212 31.3508 17.656C30.4726 15.8918 29.3202 14.2894 27.925 12.8931L27.4268 12.3951L27.7207 12.1011C28.3096 11.5122 28.3886 10.6046 27.9603 9.9287L29.6594 6.50969C29.9705 5.88339 29.8473 5.13034 29.3529 4.63593L28.4611 3.74406C27.9668 3.24965 27.2137 3.12625 26.5875 3.43757L23.169 5.13684C22.493 4.70843 21.5858 4.78755 20.9969 5.3765L20.7032 5.67018L20.205 5.17179C17.4202 2.38768 13.7388 0.554841 9.83501 0.0104859C9.34067 -0.0584504 8.8606 0.217819 8.66872 0.682955C8.49824 1.09615 8.59308 1.56706 8.90876 1.88089L16.7021 9.67646C16.1958 10.2223 16.1019 11.0138 16.4219 11.6506L11.3473 17.3848C11.0593 17.7103 11.0896 18.2076 11.4151 18.4956C11.7394 18.7827 12.2368 18.7544 12.5257 18.4279L17.4775 12.8325L20.2656 15.6209L2.44503 31.3965C2.23783 31.5801 1.92216 31.5704 1.72629 31.3746C1.53052 31.1788 1.52088 30.8631 1.70447 30.6556L10.0953 21.1742C10.3833 20.8486 10.3529 20.3514 10.0275 20.0632C9.70218 19.7752 9.20481 19.8055 8.91683 20.1311L0.526118 29.6125C-0.207833 30.4416 -0.169436 31.7045 0.613509 32.4874C1.3975 33.2715 2.66031 33.3078 3.48795 32.5749L21.4471 16.6767C21.6936 16.8006 21.9633 16.8637 22.2332 16.8637C22.6605 16.8638 23.0866 16.7069 23.4211 16.3966ZM29.9422 18.3576C30.5222 19.5223 30.9615 20.7445 31.2542 22.005L24.5363 15.2861L26.314 13.5081L26.8123 14.0061C28.0868 15.2815 29.1398 16.7455 29.9422 18.3576ZM27.2877 4.84694C27.3082 4.83687 27.3325 4.84085 27.3483 4.8568L28.2402 5.74878C28.2562 5.76472 28.2601 5.78906 28.2502 5.80921L26.8069 8.71366L24.3839 6.29029L27.2877 4.84694ZM11.0984 1.84543C14.1065 2.55043 16.9028 4.09577 19.0922 6.28474L19.5904 6.78313L17.8124 8.56142L11.0984 1.84543ZM17.859 10.9883C17.7907 10.9201 17.7907 10.8089 17.859 10.7407L22.1098 6.48934C22.1781 6.42103 22.2893 6.42135 22.3572 6.48934L26.6079 10.7407C26.6761 10.809 26.6761 10.9201 26.6079 10.9884L22.3573 15.2396C22.2892 15.3078 22.1779 15.3079 22.1098 15.2397L17.859 10.9883ZM35.3527 28.6688C35.6601 28.9761 36.1582 28.9761 36.4655 28.6688C36.7728 28.3614 36.7728 27.8632 36.4655 27.5559L34.447 25.5371C34.1396 25.2299 33.6416 25.2299 33.3342 25.5371C33.027 25.8445 33.027 26.3427 33.3342 26.65L35.3527 28.6688ZM38.5996 25.1004C39.0061 25.2185 39.452 24.9856 39.5741 24.5631C39.6947 24.1457 39.4543 23.7092 39.0369 23.5885L35.9055 22.6826C35.4881 22.562 35.0518 22.8022 34.931 23.2199C34.8103 23.6373 35.0508 24.0737 35.4682 24.1945L38.5996 25.1004ZM31.0174 27.1342C30.5999 27.255 30.3595 27.6914 30.4802 28.1089L31.386 31.2406C31.5073 31.6628 31.9522 31.896 32.3605 31.7779C32.7779 31.6571 33.0184 31.2208 32.8977 30.8033L31.9919 27.6716C31.8709 27.2539 31.435 27.0135 31.0174 27.1342Z" fill="white"/>
<path d="M52.9045 22.5104C53.3391 22.5104 53.6913 22.158 53.6913 21.7234V2.36094C53.6913 1.05912 52.6323 0.000107171 51.3308 0.000107171H35.5033C34.0733 -0.0155268 33.3002 1.6829 34.1823 2.75966L42.3688 12.9298C42.6041 13.2224 42.7196 13.5896 42.6935 13.9642L41.687 28.4555C41.6479 29.0193 41.2997 29.5051 40.7783 29.7231L30.2467 34.1264C28.8423 34.7136 28.0903 36.2118 28.4584 37.6887L29.684 42.6074C29.8133 43.1266 29.6523 43.6777 29.2636 44.0454L22.1327 50.794C21.0344 51.8357 21.788 53.7224 23.2983 53.7221H51.3306C52.6321 53.7221 53.6911 52.663 53.6911 51.3612V25.392C53.6911 24.9575 53.3388 24.6051 52.9043 24.6051C52.4696 24.6051 52.1174 24.9575 52.1174 25.392V51.3612C52.1174 51.7951 51.7645 52.1481 51.3306 52.1481H23.2985C23.2061 52.1575 23.1422 51.9926 23.2146 51.9373L30.3453 45.1887C31.1458 44.4312 31.4775 43.2962 31.2111 42.2268L29.9855 37.308C29.8068 36.591 30.1719 35.8634 30.8537 35.5785L41.3853 31.1751C42.4592 30.7262 43.1765 29.7258 43.2571 28.5645L44.2634 14.0733C44.3172 13.3017 44.0796 12.5451 43.5946 11.9427L35.4082 1.77262C35.3481 1.71207 35.4213 1.56539 35.5034 1.57389H51.3308C51.7647 1.57389 52.1176 1.92686 52.1176 2.36084V21.7233C52.1176 22.158 52.4698 22.5104 52.9045 22.5104Z" fill="white"/>
<path d="M42.8031 18.572C42.8031 18.9777 42.9272 19.3065 43.0805 19.3065H47.981C48.1342 19.3065 48.6781 19.0967 48.6781 18.572C48.6781 18.0474 48.1342 17.8375 47.981 17.8375H43.0805C42.9272 17.8375 42.8031 18.1664 42.8031 18.572Z" fill="white"/>
<path d="M42.8031 23.0839C42.8031 23.4895 42.9272 23.8183 43.0805 23.8183H47.981C48.1342 23.8183 48.6781 23.6085 48.6781 23.0839C48.6781 22.5593 48.1342 22.3494 47.981 22.3494H43.0805C42.9272 22.3494 42.8031 22.6783 42.8031 23.0839Z" fill="white"/>
<path d="M42.8031 27.5957C42.8031 28.0014 42.9272 28.3302 43.0805 28.3302H47.981C48.1342 28.3302 48.6781 28.1204 48.6781 27.5957C48.6781 27.0711 48.1342 26.8612 47.981 26.8612H43.0805C42.9272 26.8612 42.8031 27.1901 42.8031 27.5957Z" fill="white"/>
<path d="M29.5843 36.6194C29.5843 37.025 29.8727 37.3539 30.2286 37.3539H47.8009C48.1568 37.3539 48.6781 37.0391 48.6781 36.6194C48.6781 36.0947 48.1568 35.8849 47.8009 35.8849H30.2286C29.8727 35.8849 29.5843 36.2137 29.5843 36.6194Z" fill="white"/>
<path d="M36.8231 32.1076C36.8231 32.5132 36.9991 32.8421 37.2161 32.8421H47.9333C48.1503 32.8421 48.6781 32.6846 48.6781 32.1076C48.6781 31.444 48.1503 31.3731 47.9333 31.3731H37.2161C36.9991 31.3731 36.8231 31.7019 36.8231 32.1076Z" fill="white"/>
<path d="M45.2871 44.303L44.272 45.6533L43.1107 45.2674L43.5183 48.1124H47.056L47.4636 45.2674L46.3023 45.6533L45.2871 44.303ZM46.5332 47.5109H44.041L43.8457 46.1456L44.4933 46.3612L45.2871 45.3057L46.081 46.3612L46.7286 46.1456L46.5332 47.5109Z" fill="white"/>
<path d="M49.2378 43.7605C49.1625 43.4261 48.9935 43.1201 48.7497 42.8761C48.5057 42.632 48.2003 42.4629 47.866 42.3875C47.2946 42.2583 46.7529 42.0337 46.2568 41.7205C45.6773 41.3544 44.896 41.3544 44.3172 41.7205C43.8208 42.0334 43.279 42.2583 42.708 42.3875C42.3734 42.4629 42.068 42.632 41.824 42.8761C41.5802 43.1201 41.4111 43.4261 41.3359 43.7602C41.2067 44.3314 40.9827 44.8735 40.6692 45.3706C40.4869 45.6603 40.3901 45.996 40.3901 46.3412C40.3901 46.6864 40.4869 47.022 40.6699 47.3114C40.983 47.8088 41.2073 48.3509 41.3365 48.9217C41.4118 49.2565 41.5807 49.5622 41.8247 49.8063C42.068 50.0501 42.3734 50.2188 42.708 50.2947C43.2797 50.4244 43.8214 50.6485 44.3175 50.9618C44.6067 51.1447 44.9422 51.2414 45.2871 51.2414C45.6321 51.2414 45.9675 51.1447 46.2568 50.9616C46.7532 50.6485 47.2949 50.424 47.8667 50.2945C48.2011 50.2185 48.5067 50.0498 48.75 49.806C48.9938 49.5618 49.1629 49.2562 49.2381 48.9217C49.3673 48.3506 49.5913 47.8085 49.9048 47.3114C50.0874 47.022 50.1842 46.6864 50.1842 46.3412C50.1842 45.996 50.0874 45.6603 49.9044 45.3709C49.5913 44.8735 49.367 44.3314 49.2378 43.7605ZM49.3869 46.9849C49.0362 47.5415 48.7854 48.1478 48.6407 48.7873C48.5908 49.0087 48.4791 49.2112 48.3169 49.3733C48.1553 49.5349 47.953 49.647 47.7313 49.6973C47.0913 49.8424 46.4854 50.0933 45.9299 50.4439C45.5466 50.6868 45.0276 50.6868 44.6438 50.4439C44.0889 50.0933 43.4826 49.8424 42.8426 49.6973C42.621 49.647 42.4187 49.5352 42.2571 49.3733C42.0952 49.2112 41.9832 49.0087 41.9333 48.7871C41.7886 48.1478 41.5378 47.5417 41.1871 46.9846C41.0662 46.7929 41.0022 46.5703 41.0022 46.3412C41.0022 46.1121 41.0662 45.8894 41.1875 45.6973C41.5382 45.1409 41.7888 44.5345 41.9337 43.895C41.9835 43.6735 42.0952 43.4711 42.2574 43.3091C42.4197 43.147 42.6217 43.035 42.8432 42.9851C43.4829 42.8402 44.0886 42.589 44.6444 42.2383C44.8357 42.1174 45.0582 42.0534 45.2871 42.0534C45.516 42.0534 45.7385 42.1174 45.9305 42.2387C46.4857 42.5893 47.0917 42.8405 47.7317 42.9854C47.953 43.0352 48.1553 43.147 48.3172 43.3094C48.4791 43.4717 48.5911 43.6738 48.641 43.8956C48.7857 44.5347 49.0365 45.1409 49.3872 45.698C49.5081 45.8894 49.572 46.1121 49.572 46.3412C49.572 46.5703 49.5081 46.7929 49.3869 46.9849Z" fill="white"/>
</g>
<defs>
<clipPath id="clip0_107_25">
<path d="M0 0H164.506C179.691 0 192 12.3095 192 27.494C192 42.6786 179.691 54.9881 164.506 54.9881H0V0Z" fill="white"/>
</clipPath>
</defs>
</svg>
