<svg width="138" height="40" viewBox="0 0 138 40" fill="none" xmlns="http://www.w3.org/2000/svg">
<g clip-path="url(#clip0)">
<path d="M82.158 21.2581C82.8734 21.2581 83.4532 20.6711 83.4532 19.947C83.4532 19.223 82.8734 18.636 82.158 18.636C81.4427 18.636 80.8628 19.223 80.8628 19.947C80.8628 20.6711 81.4427 21.2581 82.158 21.2581Z" fill="white"/>
<path d="M79.3085 9.98306C79.3085 9.25898 78.7286 8.672 78.0132 8.672C77.2979 8.672 76.718 9.25898 76.718 9.98306V30.1734C76.718 30.8975 77.2979 31.4845 78.0132 31.4845C78.7286 31.4845 79.3085 30.8975 79.3085 30.1734V9.98306Z" fill="white"/>
<path d="M78.0132 28.8622C77.2979 28.8622 76.718 29.4492 76.718 30.1733C76.718 30.8974 77.2979 31.4844 78.0132 31.4844H85.7846C86.4999 31.4844 87.0798 30.8974 87.0798 30.1733C87.0798 29.4492 86.4999 28.8622 85.7846 28.8622H78.0132Z" fill="white"/>
<path d="M78.0132 8.67182C77.2979 8.67182 76.718 9.2588 76.718 9.98288C76.718 10.707 77.2979 11.2939 78.0132 11.2939H85.7846C86.4999 11.2939 87.0798 10.707 87.0798 9.98288C87.0798 9.2588 86.4999 8.67182 85.7846 8.67182H78.0132Z" fill="white"/>
<path d="M112.033 9.98294C112.033 9.25886 111.453 8.67188 110.738 8.67188C110.023 8.67188 109.443 9.25886 109.443 9.98294V30.1733C109.443 30.8974 110.023 31.4844 110.738 31.4844C111.453 31.4844 112.033 30.8974 112.033 30.1733V9.98294Z" fill="white"/>
<path d="M110.738 28.8622C110.023 28.8622 109.443 29.4492 109.443 30.1733C109.443 30.8974 110.023 31.4844 110.738 31.4844H118.509C119.225 31.4844 119.805 30.8974 119.805 30.1733C119.805 29.4492 119.225 28.8622 118.509 28.8622H110.738Z" fill="white"/>
<path d="M48.1417 9.88047C48.1417 9.15237 47.5586 8.56213 46.8393 8.56213C46.12 8.56213 45.5369 9.15237 45.5369 9.88047V30.1829C45.5369 30.911 46.12 31.5012 46.8393 31.5012C47.5586 31.5012 48.1417 30.911 48.1417 30.1829V9.88047Z" fill="white"/>
<path d="M46.6102 20.2685C46.1201 20.8014 46.1495 21.6355 46.6759 22.1317C47.2024 22.6278 48.0265 22.598 48.5166 22.0652L58.8706 10.8084C59.3607 10.2755 59.3313 9.44136 58.8049 8.94522C58.2784 8.44908 57.4543 8.47886 56.9641 9.01175L46.6102 20.2685Z" fill="white"/>
<path d="M55.6755 22.9002C55.3526 22.2496 54.5698 21.9871 53.927 22.314C53.2842 22.6408 53.0249 23.4332 53.3478 24.0838L56.6645 30.7671C56.9874 31.4177 57.7702 31.6802 58.413 31.3533C59.0557 31.0265 59.315 30.2341 58.9922 29.5835L55.6755 22.9002Z" fill="white"/>
<path d="M52.7531 21.9924C53.4724 21.9924 54.0555 21.4021 54.0555 20.674C54.0555 19.946 53.4724 19.3557 52.7531 19.3557C52.0338 19.3557 51.4507 19.946 51.4507 20.674C51.4507 21.4021 52.0338 21.9924 52.7531 21.9924Z" fill="white"/>
<path d="M90.6548 25.5795C89.9555 25.5795 89.3887 26.1533 89.3887 26.8611C89.3887 27.5689 89.9555 28.1427 90.6548 28.1427C91.354 28.1427 91.9209 27.5689 91.9209 26.8611C91.9209 26.1533 91.354 25.5795 90.6548 25.5795Z" fill="white"/>
<path d="M127.474 21.8152C126.68 21.8152 126.037 22.4665 126.037 23.2698C126.037 24.0731 126.68 24.7244 127.474 24.7244H134.593C135.387 24.7244 136.03 24.0731 136.03 23.2698C136.03 22.4665 135.387 21.8152 134.593 21.8152H127.474Z" fill="white"/>
<path d="M89.3887 23.5176C89.3887 24.2261 89.9561 24.8005 90.6561 24.8005C91.3561 24.8005 91.9236 24.2261 91.9236 23.5176V11.5126C91.9236 10.8041 91.3561 10.2297 90.6561 10.2297C89.9561 10.2297 89.3887 10.8041 89.3887 11.5126V23.5176Z" fill="white"/>
<path d="M89.7616 12.2201C89.2854 11.6058 89.3873 10.7081 90.048 10.3053C91.3338 9.52212 92.7655 9.00415 94.2598 8.78728C96.2171 8.50329 98.2138 8.74564 100.049 9.48986C101.884 10.2342 103.494 11.4542 104.717 13.0274C105.939 14.6006 106.731 16.4717 107.012 18.4527C107.294 20.4338 107.056 22.4549 106.322 24.3133C105.588 26.1717 104.384 27.8017 102.83 29.0399C101.276 30.2781 99.4286 31.0806 97.4713 31.367C95.977 31.5858 94.4597 31.4976 93.0079 31.1133C92.2615 30.9157 91.9134 30.0836 92.1998 29.3581C92.4854 28.6328 93.2981 28.292 94.0521 28.4585C95.0401 28.677 96.0627 28.7153 97.0715 28.5676C98.5433 28.3522 99.9334 27.7486 101.101 26.8175C102.27 25.8864 103.175 24.6606 103.728 23.2631C104.279 21.8655 104.458 20.3456 104.246 18.8558C104.035 17.366 103.439 15.959 102.52 14.7759C101.601 13.5927 100.39 12.6752 99.0103 12.1156C97.6303 11.5559 96.1283 11.3737 94.6565 11.5873C93.6477 11.7336 92.6768 12.0624 91.79 12.5542C91.1131 12.9293 90.2386 12.8344 89.7616 12.2201Z" fill="white"/>
<path d="M134.07 27.0919C134.65 27.4945 134.84 28.2878 134.403 28.8409C133.547 29.9223 132.434 30.7228 131.181 31.1399C129.556 31.6813 127.81 31.5397 126.271 30.7421C124.733 29.9445 123.509 28.5459 122.83 26.8099C122.152 25.0741 122.065 23.1208 122.587 21.3185C123.109 19.5163 124.203 17.9895 125.663 17.0261C127.124 16.0627 128.849 15.7293 130.514 16.0887C132.18 16.4481 133.669 17.4756 134.703 18.9772C135.49 20.1199 135.971 21.4771 136.104 22.8933C136.174 23.6331 135.529 24.1946 134.797 24.1381C134.075 24.0824 133.547 23.4399 133.412 22.719C133.28 22.0171 133.008 21.3514 132.611 20.774C131.97 19.843 131.046 19.2059 130.013 18.9831C128.981 18.7603 127.911 18.967 127.006 19.5643C126.1 20.1616 125.422 21.1082 125.098 22.2256C124.775 23.3431 124.828 24.5541 125.25 25.6303C125.67 26.7066 126.429 27.5738 127.383 28.0682C128.336 28.5627 129.419 28.6505 130.427 28.3149C130.987 28.1284 131.502 27.8184 131.944 27.4087C132.528 26.8686 133.415 26.6371 134.07 27.0919Z" fill="white"/>
<path d="M61.4363 17.0043C61.4363 16.2857 62.0118 15.7031 62.7217 15.7031C63.4317 15.7031 64.0072 16.2857 64.0072 17.0043V30.1991C64.0072 30.9178 63.4317 31.5003 62.7217 31.5003C62.0118 31.5003 61.4363 30.9178 61.4363 30.1991V17.0043Z" fill="white"/>
<path d="M71.8318 22.3472C71.8318 21.6286 72.4072 21.046 73.1172 21.046C73.8271 21.046 74.4027 21.6286 74.4027 22.3472V27.0581C74.4027 27.7767 73.8271 28.3593 73.1172 28.3593C72.4072 28.3593 71.8318 27.7767 71.8318 27.0581V22.3472Z" fill="white"/>
<path d="M62.7595 23.1618C62.0933 23.2823 61.4282 22.8552 61.4366 22.1701C61.4419 21.7399 61.5053 21.3103 61.6268 20.89C61.8623 20.0753 62.3096 19.3169 62.9353 18.6716C63.561 18.0263 64.3489 17.5109 65.2399 17.1639C66.1308 16.817 67.1017 16.6476 68.0798 16.6683C69.0579 16.6891 70.0179 16.8995 70.8878 17.2839C71.7576 17.6682 72.5147 18.2164 73.1026 18.8874C73.6903 19.5585 74.0933 20.335 74.2816 21.1586C74.3806 21.592 74.4188 22.0325 74.3965 22.4709C74.3622 23.1449 73.6883 23.5306 73.0376 23.3837C72.3071 23.2189 71.9003 22.4312 71.7579 21.6875C71.7515 21.6539 71.7444 21.6202 71.7368 21.5866C71.6238 21.0924 71.382 20.6265 71.0293 20.2239C70.6767 19.8212 70.2223 19.4923 69.7004 19.2618C69.1785 19.0311 68.6025 18.9049 68.0157 18.8925C67.4288 18.88 66.8462 18.9816 66.3117 19.1898C65.7771 19.3979 65.3044 19.7072 64.929 20.0944C64.5536 20.4815 64.2851 20.9366 64.1438 21.4254C64.1329 21.4632 64.1228 21.501 64.1135 21.5389C63.9336 22.2697 63.492 23.0293 62.7595 23.1618Z" fill="white"/>
<path d="M73.0738 31.4503C73.7891 31.4503 74.369 30.8633 74.369 30.1392C74.369 29.4151 73.7891 28.8281 73.0738 28.8281C72.3584 28.8281 71.7786 29.4151 71.7786 30.1392C71.7786 30.8633 72.3584 31.4503 73.0738 31.4503Z" fill="white"/>
<path d="M16.8339 11.9274L22.4354 17.5976C22.6775 17.8426 23.045 17.901 23.3477 17.749C23.6526 17.5959 23.8265 17.2635 23.7801 16.9208C23.5847 15.4994 23.1653 14.1276 22.5334 12.8435C21.9022 11.5602 21.0739 10.3945 20.0711 9.37883L19.713 9.01656L19.9242 8.80273C20.3475 8.3743 20.4043 7.71413 20.0964 7.22244L21.3177 4.73535C21.5413 4.27976 21.4527 3.73197 21.0974 3.37232L20.4564 2.72355C20.1012 2.3639 19.5599 2.27413 19.1098 2.50059L16.6527 3.7367C16.1668 3.42505 15.5148 3.48261 15.0915 3.91103L14.8805 4.12466L14.5223 3.76212C12.5208 1.73688 9.87479 0.403609 7.06891 0.00762775C6.71361 -0.0425186 6.36855 0.158448 6.23065 0.496802C6.10811 0.797375 6.17628 1.13993 6.40317 1.36822L12.0046 7.03895C11.6407 7.436 11.5732 8.0118 11.8032 8.475L8.15589 12.6462C7.94889 12.883 7.97066 13.2448 8.20459 13.4543C8.43768 13.6631 8.79518 13.6425 9.00288 13.405L12.5619 9.33477L14.5659 11.3631L1.75736 22.8387C1.60844 22.9723 1.38155 22.9653 1.24077 22.8228C1.10006 22.6804 1.09313 22.4508 1.22509 22.2998L7.25599 15.4027C7.46297 15.1659 7.44118 14.8042 7.20727 14.5946C6.97345 14.3851 6.61596 14.4071 6.40897 14.644L0.378148 21.541C-0.14938 22.1441 -0.121782 23.0628 0.440959 23.6323C1.00445 24.2027 1.91209 24.2291 2.50696 23.696L15.4151 12.1312C15.5923 12.2213 15.7861 12.2672 15.9801 12.2672C16.2872 12.2673 16.5935 12.1531 16.8339 11.9274ZM21.521 13.3539C21.9378 14.2011 22.2536 15.0902 22.464 16.0071L17.6354 11.1196L18.9132 9.82617L19.2714 10.1884C20.1874 11.1163 20.9442 12.1812 21.521 13.3539ZM19.6131 3.52581C19.6278 3.51848 19.6452 3.52138 19.6566 3.53298L20.2977 4.18184C20.3092 4.19344 20.3119 4.21114 20.3048 4.2258L19.2674 6.33859L17.5259 4.57575L19.6131 3.52581ZM7.97699 1.34242C10.1391 1.85526 12.1489 2.97939 13.7225 4.57171L14.0806 4.93426L12.8027 6.22784L7.97699 1.34242ZM12.8362 7.9932C12.7871 7.94359 12.7871 7.86273 12.8362 7.81313L15.8915 4.72055C15.9405 4.67085 16.0204 4.67109 16.0692 4.72055L19.1244 7.81313C19.1734 7.86281 19.1734 7.94359 19.1244 7.99328L16.0693 11.0858C16.0203 11.1354 15.9404 11.1355 15.8915 11.0859L12.8362 7.9932ZM25.4097 20.8545C25.6307 21.0781 25.9887 21.0781 26.2096 20.8545C26.4305 20.6309 26.4305 20.2685 26.2096 20.045L24.7588 18.5765C24.5378 18.353 24.1799 18.353 23.959 18.5765C23.7382 18.8001 23.7382 19.1625 23.959 19.386L25.4097 20.8545ZM27.7435 18.2588C28.0356 18.3447 28.3561 18.1753 28.4439 17.868C28.5306 17.5643 28.3578 17.2468 28.0578 17.159L25.8071 16.5C25.5071 16.4123 25.1935 16.587 25.1067 16.8909C25.0199 17.1945 25.1928 17.512 25.4928 17.5998L27.7435 18.2588ZM22.2938 19.7383C21.9937 19.8261 21.8209 20.1436 21.9077 20.4473L22.5587 22.7254C22.6459 23.0325 22.9657 23.2021 23.2591 23.1163C23.5591 23.0284 23.732 22.7109 23.6452 22.4073L22.9942 20.1291C22.9072 19.8253 22.5939 19.6505 22.2938 19.7383Z" fill="white"/>
<path d="M38.0251 16.3748C38.3375 16.3748 38.5906 16.1184 38.5906 15.8023V1.71742C38.5906 0.770439 37.8295 7.79594e-05 36.894 7.79594e-05H25.518C24.4902 -0.0112947 23.9345 1.2242 24.5686 2.00746L30.4526 9.40555C30.6217 9.61836 30.7047 9.88547 30.686 10.158L29.9625 20.6994C29.9344 21.1095 29.6841 21.4629 29.3094 21.6215L21.7398 24.8246C20.7304 25.2517 20.1899 26.3416 20.4545 27.4159L21.3354 30.9939C21.4283 31.3716 21.3126 31.7725 21.0332 32.04L15.9079 36.9491C15.1185 37.7069 15.6602 39.0793 16.7456 39.0791H36.8939C37.8293 39.0791 38.5905 38.3087 38.5905 37.3617V18.4709C38.5905 18.1548 38.3373 17.8985 38.025 17.8985C37.7125 17.8985 37.4594 18.1548 37.4594 18.4709V37.3617C37.4594 37.6773 37.2058 37.9341 36.8939 37.9341H16.7458C16.6794 37.9409 16.6335 37.821 16.6855 37.7808L21.8107 32.8716C22.386 32.3206 22.6245 31.495 22.433 30.717L21.5521 27.139C21.4237 26.6174 21.6861 26.0881 22.1761 25.8809L29.7457 22.6777C30.5175 22.3512 31.0331 21.6234 31.0911 20.7787L31.8143 10.2373C31.853 9.67609 31.6822 9.1257 31.3337 8.6875L25.4497 1.28946C25.4065 1.24541 25.4591 1.13871 25.5181 1.1449H36.894C37.2059 1.1449 37.4595 1.40166 37.4595 1.71734V15.8022C37.4595 16.1184 37.7127 16.3748 38.0251 16.3748Z" fill="white"/>
<path d="M30.7646 13.5099C30.7646 13.805 30.8539 14.0442 30.964 14.0442H34.4862C34.5964 14.0442 34.9873 13.8915 34.9873 13.5099C34.9873 13.1282 34.5964 12.9756 34.4862 12.9756H30.964C30.8539 12.9756 30.7646 13.2148 30.7646 13.5099Z" fill="white"/>
<path d="M30.7646 16.792C30.7646 17.087 30.8539 17.3262 30.964 17.3262H34.4862C34.5964 17.3262 34.9873 17.1735 34.9873 16.792C34.9873 16.4103 34.5964 16.2577 34.4862 16.2577H30.964C30.8539 16.2577 30.7646 16.4969 30.7646 16.792Z" fill="white"/>
<path d="M30.7646 20.074C30.7646 20.369 30.8539 20.6083 30.964 20.6083H34.4862C34.5964 20.6083 34.9873 20.4556 34.9873 20.074C34.9873 19.6923 34.5964 19.5397 34.4862 19.5397H30.964C30.8539 19.5397 30.7646 19.7789 30.7646 20.074Z" fill="white"/>
<path d="M21.2637 26.6381C21.2637 26.9331 21.471 27.1724 21.7268 27.1724H34.3568C34.6126 27.1724 34.9873 26.9434 34.9873 26.6381C34.9873 26.2564 34.6126 26.1038 34.3568 26.1038H21.7268C21.471 26.1038 21.2637 26.343 21.2637 26.6381Z" fill="white"/>
<path d="M26.4666 23.356C26.4666 23.651 26.5931 23.8902 26.749 23.8902H34.452C34.608 23.8902 34.9874 23.7757 34.9874 23.356C34.9874 22.8732 34.608 22.8217 34.452 22.8217H26.749C26.5931 22.8217 26.4666 23.0609 26.4666 23.356Z" fill="white"/>
<path d="M32.5501 32.2274L31.8206 33.2097L30.9858 32.929L31.2788 34.9985H33.8216L34.1145 32.929L33.2798 33.2097L32.5501 32.2274ZM33.4458 34.5609H31.6545L31.5141 33.5678L31.9796 33.7246L32.5501 32.9568L33.1207 33.7246L33.5862 33.5678L33.4458 34.5609Z" fill="white"/>
<path d="M35.3895 31.8327C35.3354 31.5894 35.214 31.3669 35.0387 31.1894C34.8633 31.0118 34.6438 30.8888 34.4036 30.834C33.9929 30.74 33.6035 30.5766 33.2469 30.3487C32.8304 30.0825 32.2689 30.0825 31.8529 30.3487C31.4961 30.5764 31.1067 30.74 30.6962 30.834C30.4557 30.8888 30.2362 31.0118 30.0609 31.1894C29.8856 31.3669 29.7641 31.5894 29.71 31.8325C29.6172 32.248 29.4562 32.6423 29.2309 33.004C29.0998 33.2147 29.0303 33.4589 29.0303 33.71C29.0303 33.9611 29.0998 34.2052 29.2313 34.4158C29.4564 34.7776 29.6176 35.1719 29.7105 35.5872C29.7646 35.8307 29.886 36.053 30.0613 36.2306C30.2362 36.408 30.4557 36.5307 30.6962 36.5859C31.1071 36.6802 31.4965 36.8433 31.8531 37.0712C32.0609 37.2042 32.3021 37.2746 32.55 37.2746C32.798 37.2746 33.039 37.2042 33.2469 37.071C33.6037 36.8433 33.9931 36.68 34.404 36.5858C34.6444 36.5305 34.864 36.4077 35.0389 36.2304C35.2142 36.0528 35.3357 35.8305 35.3898 35.5872C35.4826 35.1717 35.6436 34.7773 35.8689 34.4158C36.0002 34.2052 36.0697 33.9611 36.0697 33.71C36.0697 33.4589 36.0002 33.2147 35.8687 33.0042C35.6436 32.6423 35.4824 32.248 35.3895 31.8327ZM35.4967 34.1783C35.2446 34.5831 35.0644 35.0242 34.9603 35.4894C34.9245 35.6505 34.8442 35.7977 34.7276 35.9156C34.6115 36.0332 34.4661 36.1148 34.3068 36.1513C33.8468 36.2569 33.4112 36.4394 33.012 36.6944C32.7365 36.8712 32.3634 36.8712 32.0876 36.6944C31.6888 36.4394 31.253 36.2569 30.793 36.1513C30.6337 36.1148 30.4883 36.0334 30.3721 35.9156C30.2558 35.7977 30.1753 35.6505 30.1394 35.4892C30.0354 35.0242 29.8552 34.5833 29.6031 34.178C29.5162 34.0386 29.4702 33.8766 29.4702 33.71C29.4702 33.5433 29.5162 33.3813 29.6033 33.2416C29.8554 32.8369 30.0356 32.3958 30.1397 31.9305C30.1755 31.7694 30.2558 31.6222 30.3724 31.5044C30.489 31.3865 30.6342 31.305 30.7934 31.2687C31.2532 31.1633 31.6886 30.9805 32.088 30.7255C32.2255 30.6375 32.3854 30.5909 32.55 30.5909C32.7145 30.5909 32.8744 30.6375 33.0124 30.7257C33.4115 30.9808 33.847 31.1635 34.307 31.2689C34.4661 31.3051 34.6115 31.3865 34.7279 31.5046C34.8442 31.6226 34.9247 31.7697 34.9606 31.931C35.0646 32.3959 35.2448 32.8369 35.4969 33.2421C35.5838 33.3813 35.6297 33.5433 35.6297 33.71C35.6297 33.8766 35.5838 34.0386 35.4967 34.1783Z" fill="white"/>
</g>
<defs>
<clipPath id="clip0">
<path d="M0 0H118C129.046 0 138 8.95431 138 20V20C138 31.0457 129.046 40 118 40H0V0Z" fill="white"/>
</clipPath>
</defs>
</svg>
