<svg width="1061" height="304" viewBox="0 0 1061 304" fill="none" xmlns="http://www.w3.org/2000/svg">
<g clip-path="url(#clip0)">
<path d="M631.663 161.562C637.163 161.562 641.621 157.1 641.621 151.597C641.621 146.094 637.163 141.633 631.663 141.633C626.163 141.633 621.705 146.094 621.705 151.597C621.705 157.1 626.163 161.562 631.663 161.562Z" fill="#FCFCFC"/>
<path d="M609.757 75.8709C609.757 70.3679 605.298 65.9069 599.798 65.9069C594.299 65.9069 589.84 70.3679 589.84 75.8709V229.318C589.84 234.821 594.299 239.282 599.798 239.282C605.298 239.282 609.757 234.821 609.757 229.318V75.8709Z" fill="#FCFCFC"/>
<path d="M599.798 219.353C594.299 219.353 589.84 223.814 589.84 229.317C589.84 234.82 594.299 239.281 599.798 239.281H659.548C665.047 239.281 669.506 234.82 669.506 229.317C669.506 223.814 665.047 219.353 659.548 219.353H599.798Z" fill="#FCFCFC"/>
<path d="M599.798 65.9061C594.299 65.9061 589.84 70.3672 589.84 75.8702C589.84 81.3732 594.299 85.8343 599.798 85.8343H659.548C665.047 85.8343 669.506 81.3732 669.506 75.8702C669.506 70.3672 665.047 65.9061 659.548 65.9061H599.798Z" fill="#FCFCFC"/>
<path d="M861.359 75.8703C861.359 70.3673 856.9 65.9062 851.4 65.9062C845.9 65.9062 841.442 70.3673 841.442 75.8703V229.317C841.442 234.82 845.9 239.281 851.4 239.281C856.9 239.281 861.359 234.82 861.359 229.317V75.8703Z" fill="#FCFCFC"/>
<path d="M851.4 219.353C845.9 219.353 841.442 223.814 841.442 229.317C841.442 234.82 845.9 239.281 851.4 239.281H911.15C916.649 239.281 921.108 234.82 921.108 229.317C921.108 223.814 916.649 219.353 911.15 219.353H851.4Z" fill="#FCFCFC"/>
<path d="M370.133 75.0914C370.133 69.5579 365.65 65.0721 360.12 65.0721C354.59 65.0721 350.106 69.5579 350.106 75.0914V229.39C350.106 234.923 354.59 239.409 360.12 239.409C365.65 239.409 370.133 234.923 370.133 229.39V75.0914Z" fill="#FCFCFC"/>
<path d="M358.357 154.04C354.589 158.09 354.815 164.43 358.863 168.201C362.91 171.971 369.246 171.745 373.015 167.695L452.62 82.1439C456.389 78.094 456.162 71.7541 452.115 67.9834C448.067 64.2128 441.731 64.4391 437.963 68.4891L358.357 154.04Z" fill="#FCFCFC"/>
<path d="M428.055 174.041C425.573 169.097 419.554 167.102 414.612 169.586C409.671 172.07 407.677 178.092 410.159 183.036L435.66 233.829C438.142 238.774 444.161 240.769 449.102 238.285C454.044 235.801 456.038 229.779 453.555 224.834L428.055 174.041Z" fill="#FCFCFC"/>
<path d="M405.586 167.142C411.116 167.142 415.6 162.656 415.6 157.122C415.6 151.589 411.116 147.103 405.586 147.103C400.056 147.103 395.573 151.589 395.573 157.122C395.573 162.656 400.056 167.142 405.586 167.142Z" fill="#FCFCFC"/>
<path d="M696.99 194.405C691.614 194.405 687.256 198.766 687.256 204.145C687.256 209.524 691.614 213.885 696.99 213.885C702.366 213.885 706.725 209.524 706.725 204.145C706.725 198.766 702.366 194.405 696.99 194.405Z" fill="#FCFCFC"/>
<path d="M980.071 165.795C973.969 165.795 969.023 170.745 969.023 176.85C969.023 182.955 973.969 187.905 980.071 187.905H1034.81C1040.91 187.905 1045.86 182.955 1045.86 176.85C1045.86 170.745 1040.91 165.795 1034.81 165.795H980.071Z" fill="#FCFCFC"/>
<path d="M687.256 178.734C687.256 184.119 691.619 188.484 697.001 188.484C702.383 188.484 706.746 184.119 706.746 178.734V87.4962C706.746 82.1111 702.383 77.7456 697.001 77.7456C691.619 77.7456 687.256 82.1111 687.256 87.4962V178.734Z" fill="#FCFCFC"/>
<path d="M690.125 92.8726C686.464 88.204 687.247 81.3818 692.327 78.3204C702.213 72.368 713.22 68.4315 724.708 66.7832C739.757 64.6249 755.108 66.4668 769.219 72.1228C783.33 77.7795 795.709 87.0515 805.108 99.0078C814.502 110.965 820.59 125.185 822.756 140.241C824.922 155.297 823.094 170.657 817.445 184.781C811.802 198.904 802.545 211.293 790.6 220.703C778.654 230.113 764.448 236.213 749.4 238.389C737.912 240.052 726.245 239.382 715.083 236.461C709.345 234.959 706.669 228.635 708.871 223.122C711.066 217.609 717.315 215.019 723.112 216.285C730.708 217.945 738.57 218.236 746.326 217.114C757.642 215.477 768.329 210.889 777.307 203.813C786.291 196.737 793.252 187.42 797.501 176.799C801.744 166.178 803.12 154.626 801.488 143.304C799.863 131.982 795.282 121.288 788.22 112.297C781.153 103.305 771.842 96.3318 761.232 92.0782C750.622 87.8245 739.075 86.4399 727.759 88.0632C720.003 89.1753 712.538 91.6744 705.72 95.4115C700.515 98.2627 693.792 97.5413 690.125 92.8726Z" fill="#FCFCFC"/>
<path d="M1030.78 205.899C1035.24 208.958 1036.71 214.987 1033.34 219.191C1026.77 227.41 1018.2 233.493 1008.57 236.664C996.076 240.778 982.653 239.702 970.821 233.641C958.995 227.579 949.589 216.949 944.367 203.756C939.151 190.564 938.487 175.719 942.498 162.021C946.509 148.324 954.924 136.72 966.151 129.399C977.378 122.077 990.641 119.543 1003.45 122.275C1016.25 125.006 1027.7 132.815 1035.65 144.227C1041.7 152.912 1045.4 163.227 1046.43 173.99C1046.96 179.612 1042 183.88 1036.37 183.45C1030.82 183.026 1026.76 178.144 1025.72 172.665C1024.71 167.331 1022.62 162.271 1019.56 157.883C1014.64 150.807 1007.53 145.966 999.595 144.272C991.655 142.579 983.431 144.15 976.47 148.689C969.51 153.228 964.294 160.423 961.807 168.915C959.321 177.408 959.73 186.612 962.97 194.791C966.204 202.971 972.037 209.561 979.372 213.319C986.7 217.077 995.026 217.744 1002.78 215.193C1007.08 213.776 1011.04 211.42 1014.44 208.307C1018.93 204.202 1025.75 202.443 1030.78 205.899Z" fill="#FCFCFC"/>
<path d="M472.347 129.233C472.347 123.771 476.772 119.344 482.23 119.344C487.688 119.344 492.113 123.771 492.113 129.233V229.513C492.113 234.975 487.688 239.402 482.23 239.402C476.772 239.402 472.347 234.975 472.347 229.513V129.233Z" fill="#FCFCFC"/>
<path d="M552.272 169.839C552.272 164.378 556.696 159.95 562.155 159.95C567.613 159.95 572.038 164.378 572.038 169.839V205.642C572.038 211.104 567.613 215.531 562.155 215.531C556.696 215.531 552.272 211.104 552.272 205.642V169.839Z" fill="#FCFCFC"/>
<path d="M482.521 176.03C477.398 176.945 472.285 173.699 472.35 168.493C472.39 165.223 472.878 161.958 473.812 158.764C475.622 152.572 479.062 146.808 483.872 141.904C488.683 137 494.741 133.083 501.591 130.446C508.44 127.809 515.905 126.522 523.426 126.679C530.946 126.837 538.326 128.436 545.014 131.357C551.702 134.278 557.523 138.444 562.042 143.544C566.561 148.644 569.66 154.545 571.107 160.805C571.868 164.099 572.162 167.446 571.991 170.779C571.727 175.901 566.546 178.832 561.543 177.716C555.927 176.463 552.799 170.477 551.704 164.825C551.655 164.569 551.6 164.313 551.541 164.058C550.673 160.302 548.814 156.761 546.102 153.701C543.391 150.641 539.898 148.141 535.885 146.389C531.873 144.636 527.444 143.677 522.932 143.582C518.42 143.487 513.941 144.26 509.831 145.842C505.721 147.424 502.087 149.775 499.201 152.717C496.314 155.659 494.25 159.118 493.164 162.833C493.08 163.12 493.002 163.407 492.931 163.695C491.547 169.25 488.153 175.023 482.521 176.03Z" fill="#FCFCFC"/>
<path d="M561.821 239.022C567.321 239.022 571.779 234.561 571.779 229.058C571.779 223.555 567.321 219.094 561.821 219.094C556.321 219.094 551.863 223.555 551.863 229.058C551.863 234.561 556.321 239.022 561.821 239.022Z" fill="#FCFCFC"/>
<path d="M129.426 90.6484L172.493 133.742C174.354 135.604 177.179 136.048 179.507 134.892C181.851 133.729 183.188 131.203 182.831 128.598C181.329 117.795 178.104 107.37 173.246 97.6107C168.393 87.8572 162.024 78.9984 154.315 71.2791L151.562 68.5259L153.186 66.9008C156.44 63.6447 156.877 58.6274 154.51 54.8905L163.899 35.9887C165.618 32.5262 164.937 28.363 162.205 25.6296L157.277 20.699C154.546 17.9656 150.384 17.2834 146.924 19.0045L128.033 28.3989C124.297 26.0304 119.284 26.4678 116.03 29.7238L114.407 31.3474L111.654 28.5921C96.265 13.2003 75.9214 3.06743 54.3487 0.0579709C51.6169 -0.323141 48.964 1.20421 47.9037 3.7757C46.9617 6.06005 47.4857 8.66347 49.2302 10.3985L92.2963 53.496C89.4984 56.5136 88.9798 60.8897 90.7481 64.41L62.7058 96.1115C61.1143 97.9112 61.2816 100.66 63.0802 102.253C64.8723 103.84 67.6209 103.683 69.2178 101.878L96.5813 70.9442L111.988 86.3597L13.5113 173.574C12.3663 174.59 10.6219 174.536 9.53956 173.453C8.45773 172.371 8.40445 170.626 9.41898 169.479L55.787 117.061C57.3784 115.261 57.2108 112.512 55.4124 110.919C53.6147 109.327 50.8662 109.494 49.2748 111.294L2.90735 163.712C-1.14849 168.295 -0.93631 175.277 3.39027 179.606C7.72263 183.941 14.701 184.141 19.2745 180.09L118.517 92.1969C119.88 92.8815 121.37 93.2306 122.862 93.2306C125.223 93.2312 127.578 92.3638 129.426 90.6484ZM165.462 101.49C168.667 107.928 171.095 114.685 172.712 121.654L135.588 84.509L145.412 74.6789L148.166 77.4321C155.209 84.4835 161.028 92.5769 165.462 101.49ZM150.793 26.7962C150.906 26.7405 151.041 26.7625 151.128 26.8507L156.057 31.782C156.145 31.8701 156.166 32.0047 156.112 32.1161L148.136 48.1733L134.746 34.7757L150.793 26.7962ZM61.3303 10.2024C77.9532 14.1 93.4054 22.6434 105.504 34.745L108.258 37.5004L98.4321 47.3316L61.3303 10.2024ZM98.6896 60.7483C98.3122 60.3713 98.3122 59.7568 98.6896 59.3798L122.18 35.8762C122.557 35.4985 123.172 35.5003 123.547 35.8762L147.036 59.3798C147.413 59.7574 147.413 60.3713 147.036 60.7489L123.547 84.2519C123.171 84.629 122.556 84.6296 122.18 84.2525L98.6896 60.7483ZM195.36 158.494C197.059 160.194 199.812 160.194 201.51 158.494C203.208 156.795 203.208 154.041 201.51 152.342L190.356 141.181C188.657 139.483 185.905 139.483 184.206 141.181C182.509 142.881 182.509 145.635 184.206 147.334L195.36 158.494ZM213.303 138.767C215.549 139.42 218.014 138.132 218.688 135.797C219.355 133.489 218.026 131.076 215.719 130.408L198.415 125.4C196.109 124.733 193.698 126.061 193.03 128.371C192.363 130.678 193.692 133.091 195.999 133.759L213.303 138.767ZM171.404 150.011C169.097 150.678 167.768 153.091 168.435 155.399L173.44 172.713C174.111 175.047 176.569 176.336 178.825 175.684C181.132 175.016 182.461 172.603 181.794 170.295L176.789 152.981C176.12 150.672 173.711 149.344 171.404 150.011Z" fill="#FCFCFC"/>
<path d="M292.352 124.448C294.754 124.448 296.7 122.5 296.7 120.097V13.0524C296.7 5.85534 290.848 0.000592492 283.656 0.000592492H196.192C188.291 -0.0858396 184.018 9.30388 188.893 15.2567L234.132 71.4822C235.432 73.0995 236.07 75.1296 235.926 77.2006L230.364 157.315C230.148 160.432 228.224 163.118 225.343 164.323L167.144 188.667C159.384 191.913 155.228 200.196 157.262 208.361L164.035 235.554C164.749 238.424 163.86 241.471 161.712 243.504L122.306 280.813C116.237 286.572 120.402 297.003 128.747 297.001H283.655C290.847 297.001 296.699 291.146 296.699 283.949V140.379C296.699 137.977 294.753 136.029 292.351 136.029C289.949 136.029 288.003 137.977 288.003 140.379V283.949C288.003 286.348 286.053 288.299 283.655 288.299H128.748C128.238 288.351 127.885 287.44 128.285 287.134L167.69 249.824C172.113 245.637 173.946 239.362 172.474 233.449L165.701 206.256C164.714 202.292 166.731 198.27 170.499 196.695L228.697 172.351C234.631 169.869 238.595 164.338 239.041 157.918L244.602 77.8038C244.899 73.5383 243.586 69.3553 240.906 66.025L195.667 9.7999C195.335 9.46515 195.74 8.6542 196.193 8.70123H283.656C286.054 8.70123 288.004 10.6526 288.004 13.0518V120.097C288.004 122.5 289.95 124.448 292.352 124.448Z" fill="#FCFCFC"/>
<path d="M236.532 102.675C236.532 104.917 237.218 106.735 238.065 106.735H265.145C265.992 106.735 268.997 105.575 268.997 102.675C268.997 99.7743 265.992 98.6141 265.145 98.6141H238.065C237.218 98.6141 236.532 100.432 236.532 102.675Z" fill="#FCFCFC"/>
<path d="M236.532 127.619C236.532 129.861 237.218 131.679 238.065 131.679H265.145C265.992 131.679 268.997 130.519 268.997 127.619C268.997 124.718 265.992 123.558 265.145 123.558H238.065C237.218 123.558 236.532 125.376 236.532 127.619Z" fill="#FCFCFC"/>
<path d="M236.532 152.562C236.532 154.805 237.218 156.623 238.065 156.623H265.145C265.992 156.623 268.997 155.463 268.997 152.562C268.997 149.662 265.992 148.502 265.145 148.502H238.065C237.218 148.502 236.532 150.32 236.532 152.562Z" fill="#FCFCFC"/>
<path d="M163.484 202.449C163.484 204.692 165.078 206.51 167.045 206.51H264.15C266.116 206.51 268.997 204.77 268.997 202.449C268.997 199.549 266.116 198.388 264.15 198.388H167.045C165.078 198.388 163.484 200.207 163.484 202.449Z" fill="#FCFCFC"/>
<path d="M203.486 177.506C203.486 179.748 204.458 181.566 205.658 181.566H264.881C266.081 181.566 268.997 180.696 268.997 177.506C268.997 173.837 266.081 173.445 264.881 173.445H205.658C204.458 173.445 203.486 175.263 203.486 177.506Z" fill="#FCFCFC"/>
<path d="M250.258 244.928L244.649 252.393L238.231 250.26L240.484 265.988H260.034L262.286 250.26L255.869 252.393L250.258 244.928ZM257.144 262.663H243.373L242.293 255.115L245.872 256.306L250.258 250.471L254.646 256.306L258.224 255.115L257.144 262.663Z" fill="#FCFCFC"/>
<path d="M272.09 241.929C271.674 240.08 270.74 238.388 269.393 237.039C268.044 235.69 266.357 234.755 264.509 234.338C261.352 233.624 258.358 232.382 255.617 230.65C252.415 228.627 248.097 228.627 244.899 230.65C242.155 232.381 239.162 233.624 236.006 234.338C234.157 234.755 232.469 235.69 231.121 237.039C229.774 238.388 228.84 240.08 228.424 241.927C227.71 245.085 226.472 248.082 224.74 250.83C223.732 252.432 223.198 254.288 223.198 256.196C223.198 258.104 223.732 259.96 224.743 261.56C226.474 264.31 227.713 267.307 228.427 270.463C228.843 272.313 229.777 274.003 231.125 275.353C232.469 276.701 234.157 277.633 236.006 278.053C239.165 278.77 242.159 280.009 244.901 281.741C246.499 282.752 248.352 283.287 250.258 283.287C252.165 283.287 254.018 282.752 255.617 281.74C258.36 280.009 261.354 278.768 264.513 278.052C266.361 277.632 268.05 276.699 269.394 275.351C270.742 274.001 271.676 272.312 272.092 270.463C272.806 267.305 274.044 264.308 275.776 261.56C276.785 259.96 277.32 258.104 277.32 256.196C277.32 254.288 276.785 252.432 275.774 250.832C274.044 248.082 272.804 245.085 272.09 241.929ZM272.914 259.755C270.976 262.832 269.59 266.184 268.79 269.719C268.515 270.944 267.897 272.063 267.001 272.959C266.108 273.852 264.99 274.472 263.765 274.75C260.229 275.552 256.88 276.939 253.81 278.878C251.693 280.221 248.824 280.221 246.703 278.878C243.637 276.939 240.287 275.552 236.75 274.75C235.525 274.472 234.407 273.854 233.514 272.959C232.62 272.063 232.001 270.944 231.725 269.718C230.925 266.184 229.54 262.833 227.602 259.753C226.934 258.693 226.58 257.462 226.58 256.196C226.58 254.93 226.934 253.698 227.604 252.636C229.542 249.56 230.927 246.208 231.727 242.672C232.002 241.448 232.62 240.329 233.516 239.433C234.413 238.537 235.529 237.918 236.753 237.642C240.288 236.841 243.635 235.452 246.707 233.514C247.764 232.845 248.993 232.491 250.258 232.491C251.523 232.491 252.753 232.845 253.814 233.515C256.882 235.454 260.23 236.843 263.767 237.644C264.99 237.919 266.108 238.537 267.003 239.435C267.897 240.332 268.516 241.45 268.792 242.676C269.592 246.209 270.978 249.56 272.916 252.64C273.584 253.698 273.937 254.93 273.937 256.196C273.937 257.462 273.584 258.693 272.914 259.755Z" fill="#FCFCFC"/>
</g>
<defs>
<clipPath id="clip0">
<path d="M0 0H1016C1040.85 0 1061 20.1472 1061 45V259C1061 283.853 1040.85 304 1016 304H0V0Z" fill="white"/>
</clipPath>
</defs>
</svg>
